<svg width="512" height="512" viewBox="0 0 512 512" fill="none" xmlns="http://www.w3.org/2000/svg">
<circle cx="256" cy="256" r="255.5" fill="#FFFCF6" stroke="#473C2B"/>
<path d="M230.898 140.992C230.285 140.379 229.546 139.908 228.732 139.612C227.917 139.316 227.048 139.202 226.185 139.279C225.322 139.355 224.486 139.619 223.737 140.054C222.987 140.488 222.342 141.081 221.846 141.792C209.346 159.633 202.647 180.893 202.662 202.677C202.672 207.344 202.984 212.005 203.595 216.632L100.624 357.068C97.2531 361.627 95.6363 367.246 96.0688 372.899C96.5013 378.551 98.9542 383.859 102.979 387.852L124.148 409.021C128.141 413.046 133.449 415.499 139.101 415.931C144.754 416.364 150.373 414.747 154.932 411.377L295.383 308.375C300.004 308.996 304.66 309.318 309.323 309.338C331.099 309.358 352.353 302.67 370.193 290.183C370.904 289.688 371.497 289.043 371.932 288.293C372.366 287.543 372.63 286.707 372.707 285.845C372.783 284.982 372.669 284.112 372.373 283.298C372.077 282.484 371.606 281.745 370.993 281.132L230.898 140.992ZM234.764 293.991L211.062 317.693C209.972 318.84 208.664 319.757 207.214 320.39C205.765 321.023 204.203 321.36 202.622 321.38C201.04 321.401 199.47 321.104 198.005 320.508C196.539 319.912 195.208 319.029 194.09 317.91C192.971 316.792 192.088 315.461 191.492 313.995C190.896 312.53 190.599 310.96 190.62 309.378C190.64 307.797 190.977 306.235 191.61 304.786C192.243 303.336 193.16 302.028 194.307 300.938L218.009 277.236C220.25 275.107 223.234 273.938 226.324 273.978C229.414 274.017 232.367 275.262 234.552 277.448C236.738 279.633 237.983 282.586 238.022 285.676C238.062 288.766 236.893 291.75 234.764 293.991ZM396.829 263.533C396.334 264.246 395.688 264.842 394.937 265.278C394.186 265.713 393.348 265.979 392.483 266.055C391.618 266.131 390.747 266.017 389.931 265.719C389.116 265.422 388.375 264.948 387.763 264.333L247.667 124.237C247.052 123.625 246.578 122.884 246.281 122.069C245.983 121.253 245.869 120.382 245.945 119.517C246.021 118.652 246.287 117.814 246.722 117.063C247.158 116.313 247.754 115.666 248.467 115.171C268.987 100.853 293.892 94.2121 318.817 96.4133C343.742 98.6144 367.097 109.517 384.79 127.21C402.483 144.903 413.386 168.258 415.587 193.183C417.788 218.108 411.147 243.013 396.829 263.533Z" fill="#FFBD84"/>
<mask id="mask0_19_254" style="mask-type:alpha" maskUnits="userSpaceOnUse" x="96" y="96" width="320" height="320">
<path d="M226.194 139.378C227.043 139.303 227.897 139.415 228.697 139.706C229.498 139.997 230.225 140.46 230.827 141.062L370.923 281.203C371.525 281.805 371.988 282.532 372.279 283.332C372.57 284.132 372.682 284.988 372.607 285.836C372.532 286.684 372.272 287.506 371.845 288.243C371.418 288.98 370.834 289.614 370.136 290.102C352.312 302.577 331.079 309.259 309.323 309.238C304.665 309.218 300.013 308.896 295.396 308.275L295.356 308.271L295.323 308.294L154.872 411.296C150.333 414.652 144.737 416.262 139.108 415.831C133.48 415.4 128.194 412.958 124.219 408.95L103.05 387.781C99.0423 383.806 96.5997 378.52 96.1689 372.892C95.7517 367.439 97.2493 362.017 100.395 357.557L100.704 357.128L203.676 216.691L203.7 216.659L203.694 216.619C203.083 211.997 202.771 207.339 202.762 202.677C202.747 180.913 209.439 159.674 221.928 141.85L221.929 141.849C222.416 141.15 223.05 140.567 223.787 140.141C224.524 139.714 225.346 139.453 226.194 139.378ZM226.325 273.878C223.209 273.838 220.2 275.017 217.94 277.163L193.815 301.288C192.855 302.297 192.077 303.466 191.519 304.745C190.88 306.207 190.54 307.782 190.52 309.377C190.499 310.972 190.798 312.556 191.399 314.033C192 315.511 192.892 316.854 194.02 317.981C195.147 319.109 196.489 320 197.967 320.601C199.444 321.202 201.028 321.501 202.623 321.48C204.218 321.46 205.793 321.12 207.255 320.481C208.716 319.843 210.034 318.918 211.132 317.763L211.133 317.764L234.837 294.06C236.983 291.8 238.162 288.791 238.122 285.675C238.082 282.558 236.827 279.581 234.623 277.377C232.419 275.173 229.442 273.918 226.325 273.878ZM248.524 115.253C269.025 100.948 293.906 94.3137 318.808 96.5127C343.709 98.7118 367.043 109.604 384.72 127.28C402.396 144.957 413.288 168.291 415.487 193.192C417.686 218.094 411.052 242.975 396.747 263.476C396.26 264.177 395.625 264.763 394.887 265.191C394.149 265.62 393.325 265.88 392.475 265.955C391.624 266.03 390.768 265.918 389.966 265.625C389.164 265.332 388.436 264.868 387.834 264.263H387.833L247.737 124.167V124.166C247.132 123.564 246.668 122.836 246.375 122.034C246.082 121.232 245.97 120.376 246.045 119.525C246.12 118.675 246.38 117.851 246.809 117.113C247.237 116.375 247.823 115.74 248.524 115.253Z" fill="#FFBD84" stroke="#473C2B" stroke-width="0.2"/>
</mask>
<g mask="url(#mask0_19_254)">
<line x1="232.089" y1="419.94" x2="192.089" y2="210.94" stroke="#FFE96D" stroke-width="10"/>
<line x1="216.089" y1="419.94" x2="176.089" y2="210.94" stroke="#C3C4C2" stroke-width="10"/>
<line x1="200.089" y1="419.94" x2="160.089" y2="210.94" stroke="#F9C5E2" stroke-width="10"/>
<line x1="184.089" y1="419.94" x2="144.089" y2="210.94" stroke="#72ADFF" stroke-width="10"/>
<line x1="168.089" y1="419.94" x2="128.089" y2="210.94" stroke="#FF9191" stroke-width="10"/>
<line x1="150.089" y1="419.94" x2="110.089" y2="210.94" stroke="#7BA56F" stroke-width="10"/>
<line x1="134.089" y1="419.94" x2="94.0891" y2="210.94" stroke="#9282A3" stroke-width="10"/>
</g>
<path d="M226.189 139.328C227.045 139.252 227.908 139.366 228.715 139.659C229.522 139.953 230.255 140.42 230.862 141.027L370.958 281.167C371.566 281.774 372.033 282.508 372.326 283.315C372.62 284.123 372.733 284.984 372.657 285.84C372.582 286.695 372.319 287.524 371.889 288.268C371.458 289.011 370.87 289.651 370.165 290.143C352.333 302.624 331.089 309.309 309.323 309.288C304.663 309.268 300.008 308.946 295.39 308.325L295.369 308.322L295.354 308.335L154.902 411.336H154.901C150.353 414.699 144.746 416.312 139.105 415.881C133.465 415.449 128.168 413.002 124.184 408.986V408.985L103.015 387.816H103.014C98.9978 383.832 96.5508 378.536 96.1191 372.896C95.6875 367.255 97.3009 361.647 100.664 357.099V357.098L203.636 216.661L203.647 216.646L203.645 216.625C203.033 212.001 202.722 207.341 202.712 202.677C202.697 180.903 209.392 159.653 221.887 141.82H221.888C222.379 141.116 223.018 140.527 223.762 140.097C224.505 139.666 225.334 139.404 226.189 139.328ZM226.324 273.928C223.221 273.888 220.225 275.063 217.975 277.2H217.974L194.272 300.902C193.121 301.996 192.2 303.31 191.564 304.766C190.928 306.221 190.59 307.79 190.569 309.378C190.549 310.966 190.847 312.542 191.445 314.014C192.044 315.485 192.931 316.822 194.055 317.945C195.178 319.069 196.515 319.956 197.986 320.555C199.458 321.153 201.034 321.451 202.622 321.431C204.21 321.41 205.779 321.072 207.234 320.436C208.69 319.8 210.003 318.88 211.097 317.729L234.8 294.026V294.025C236.937 291.775 238.112 288.779 238.072 285.676C238.033 282.572 236.782 279.607 234.588 277.412C232.393 275.218 229.428 273.967 226.324 273.928ZM248.495 115.212C269.006 100.9 293.899 94.2628 318.812 96.4629C343.726 98.6631 367.07 109.56 384.755 127.245C402.44 144.93 413.337 168.274 415.537 193.188C417.737 218.101 411.1 242.994 396.788 263.505C396.297 264.212 395.656 264.802 394.911 265.234C394.167 265.666 393.336 265.929 392.479 266.005C391.621 266.081 390.757 265.967 389.948 265.672C389.14 265.377 388.405 264.908 387.798 264.298L247.702 124.202C247.092 123.595 246.623 122.86 246.328 122.052C246.033 121.243 245.919 120.379 245.995 119.521C246.071 118.664 246.334 117.833 246.766 117.089C247.198 116.344 247.788 115.703 248.495 115.212Z" stroke="#473C2B" stroke-width="0.1"/>
</svg>
