<svg width="1735" height="512" viewBox="0 0 1735 512" fill="none" xmlns="http://www.w3.org/2000/svg">
<circle cx="256" cy="256" r="255.5" fill="#FFFCF6" stroke="#473C2B"/>
<path d="M230.898 140.992C230.285 140.379 229.546 139.908 228.732 139.612C227.917 139.316 227.048 139.202 226.185 139.279C225.322 139.355 224.486 139.619 223.737 140.054C222.987 140.488 222.342 141.081 221.846 141.792C209.346 159.633 202.647 180.893 202.662 202.677C202.672 207.344 202.984 212.005 203.595 216.632L100.624 357.068C97.2531 361.627 95.6363 367.246 96.0688 372.899C96.5013 378.551 98.9542 383.859 102.979 387.852L124.148 409.021C128.141 413.046 133.449 415.499 139.101 415.931C144.754 416.364 150.373 414.747 154.932 411.377L295.383 308.375C300.004 308.996 304.66 309.318 309.323 309.338C331.099 309.358 352.353 302.67 370.193 290.183C370.904 289.688 371.497 289.043 371.932 288.293C372.366 287.543 372.63 286.707 372.707 285.845C372.783 284.982 372.669 284.112 372.373 283.298C372.077 282.484 371.606 281.745 370.993 281.132L230.898 140.992ZM234.764 293.991L211.062 317.693C209.972 318.84 208.664 319.757 207.214 320.39C205.765 321.023 204.203 321.36 202.622 321.38C201.04 321.401 199.47 321.104 198.005 320.508C196.539 319.912 195.208 319.029 194.09 317.91C192.971 316.792 192.088 315.461 191.492 313.995C190.896 312.53 190.599 310.96 190.62 309.378C190.64 307.797 190.977 306.235 191.61 304.786C192.243 303.336 193.16 302.028 194.307 300.938L218.009 277.236C220.25 275.107 223.234 273.938 226.324 273.978C229.414 274.017 232.367 275.262 234.552 277.448C236.738 279.633 237.983 282.586 238.022 285.676C238.062 288.766 236.893 291.75 234.764 293.991ZM396.829 263.533C396.334 264.246 395.688 264.842 394.937 265.278C394.186 265.713 393.348 265.979 392.483 266.055C391.618 266.131 390.747 266.017 389.931 265.719C389.116 265.422 388.375 264.948 387.763 264.333L247.667 124.237C247.052 123.625 246.578 122.884 246.281 122.069C245.983 121.253 245.869 120.382 245.945 119.517C246.021 118.652 246.287 117.814 246.722 117.063C247.158 116.313 247.754 115.666 248.467 115.171C268.987 100.853 293.892 94.2121 318.817 96.4133C343.742 98.6144 367.097 109.517 384.79 127.21C402.483 144.903 413.386 168.258 415.587 193.183C417.788 218.108 411.147 243.013 396.829 263.533Z" fill="#FFBD84"/>
<mask id="mask0_19_251" style="mask-type:alpha" maskUnits="userSpaceOnUse" x="96" y="96" width="320" height="320">
<path d="M226.194 139.378C227.043 139.303 227.897 139.415 228.697 139.706C229.498 139.997 230.225 140.46 230.827 141.062L370.923 281.203C371.525 281.805 371.988 282.532 372.279 283.332C372.57 284.132 372.682 284.988 372.607 285.836C372.532 286.684 372.272 287.506 371.845 288.243C371.418 288.98 370.834 289.614 370.136 290.102C352.312 302.577 331.079 309.259 309.323 309.238C304.665 309.218 300.013 308.896 295.396 308.275L295.356 308.271L295.323 308.294L154.872 411.296C150.333 414.652 144.737 416.262 139.108 415.831C133.48 415.4 128.194 412.958 124.219 408.95L103.05 387.781C99.0423 383.806 96.5997 378.52 96.1689 372.892C95.7517 367.439 97.2493 362.017 100.395 357.557L100.704 357.128L203.676 216.691L203.7 216.659L203.694 216.619C203.083 211.997 202.771 207.339 202.762 202.677C202.747 180.913 209.439 159.674 221.928 141.85L221.929 141.849C222.416 141.15 223.05 140.567 223.787 140.141C224.524 139.714 225.346 139.453 226.194 139.378ZM226.325 273.878C223.209 273.838 220.2 275.017 217.94 277.163L193.815 301.288C192.855 302.297 192.077 303.466 191.519 304.745C190.88 306.207 190.54 307.782 190.52 309.377C190.499 310.972 190.798 312.556 191.399 314.033C192 315.511 192.892 316.854 194.02 317.981C195.147 319.109 196.489 320 197.967 320.601C199.444 321.202 201.028 321.501 202.623 321.48C204.218 321.46 205.793 321.12 207.255 320.481C208.716 319.843 210.034 318.918 211.132 317.763L211.133 317.764L234.837 294.06C236.983 291.8 238.162 288.791 238.122 285.675C238.082 282.558 236.827 279.581 234.623 277.377C232.419 275.173 229.442 273.918 226.325 273.878ZM248.524 115.253C269.025 100.948 293.906 94.3137 318.808 96.5127C343.709 98.7118 367.043 109.604 384.72 127.28C402.396 144.957 413.288 168.291 415.487 193.192C417.686 218.094 411.052 242.975 396.747 263.476C396.26 264.177 395.625 264.763 394.887 265.191C394.149 265.62 393.325 265.88 392.475 265.955C391.624 266.03 390.768 265.918 389.966 265.625C389.164 265.332 388.436 264.868 387.834 264.263H387.833L247.737 124.167V124.166C247.132 123.564 246.668 122.836 246.375 122.034C246.082 121.232 245.97 120.376 246.045 119.525C246.12 118.675 246.38 117.851 246.809 117.113C247.237 116.375 247.823 115.74 248.524 115.253Z" fill="#FFBD84" stroke="#473C2B" stroke-width="0.2"/>
</mask>
<g mask="url(#mask0_19_251)">
<line x1="232.089" y1="419.94" x2="192.089" y2="210.94" stroke="#FFE96D" stroke-width="10"/>
<line x1="216.089" y1="419.94" x2="176.089" y2="210.94" stroke="#C3C4C2" stroke-width="10"/>
<line x1="200.089" y1="419.94" x2="160.089" y2="210.94" stroke="#F9C5E2" stroke-width="10"/>
<line x1="184.089" y1="419.94" x2="144.089" y2="210.94" stroke="#72ADFF" stroke-width="10"/>
<line x1="168.089" y1="419.94" x2="128.089" y2="210.94" stroke="#FF9191" stroke-width="10"/>
<line x1="150.089" y1="419.94" x2="110.089" y2="210.94" stroke="#7BA56F" stroke-width="10"/>
<line x1="134.089" y1="419.94" x2="94.0891" y2="210.94" stroke="#9282A3" stroke-width="10"/>
</g>
<path d="M226.189 139.328C227.045 139.252 227.908 139.366 228.715 139.659C229.522 139.953 230.255 140.42 230.862 141.027L370.958 281.167C371.566 281.774 372.033 282.508 372.326 283.315C372.62 284.123 372.733 284.984 372.657 285.84C372.582 286.695 372.319 287.524 371.889 288.268C371.458 289.011 370.87 289.651 370.165 290.143C352.333 302.624 331.089 309.309 309.323 309.288C304.663 309.268 300.008 308.946 295.39 308.325L295.369 308.322L295.354 308.335L154.902 411.336H154.901C150.353 414.699 144.746 416.312 139.105 415.881C133.465 415.449 128.168 413.002 124.184 408.986V408.985L103.015 387.816H103.014C98.9978 383.832 96.5508 378.536 96.1191 372.896C95.6875 367.255 97.3009 361.647 100.664 357.099V357.098L203.636 216.661L203.647 216.646L203.645 216.625C203.033 212.001 202.722 207.341 202.712 202.677C202.697 180.903 209.392 159.653 221.887 141.82H221.888C222.379 141.116 223.018 140.527 223.762 140.097C224.505 139.666 225.334 139.404 226.189 139.328ZM226.324 273.928C223.221 273.888 220.225 275.063 217.975 277.2H217.974L194.272 300.902C193.121 301.996 192.2 303.31 191.564 304.766C190.928 306.221 190.59 307.79 190.569 309.378C190.549 310.966 190.847 312.542 191.445 314.014C192.044 315.485 192.931 316.822 194.055 317.945C195.178 319.069 196.515 319.956 197.986 320.555C199.458 321.153 201.034 321.451 202.622 321.431C204.21 321.41 205.779 321.072 207.234 320.436C208.69 319.8 210.003 318.88 211.097 317.729L234.8 294.026V294.025C236.937 291.775 238.112 288.779 238.072 285.676C238.033 282.572 236.782 279.607 234.588 277.412C232.393 275.218 229.428 273.967 226.324 273.928ZM248.495 115.212C269.006 100.9 293.899 94.2628 318.812 96.4629C343.726 98.6631 367.07 109.56 384.755 127.245C402.44 144.93 413.337 168.274 415.537 193.188C417.737 218.101 411.1 242.994 396.788 263.505C396.297 264.212 395.656 264.802 394.911 265.234C394.167 265.666 393.336 265.929 392.479 266.005C391.621 266.081 390.757 265.967 389.948 265.672C389.14 265.377 388.405 264.908 387.798 264.298L247.702 124.202C247.092 123.595 246.623 122.86 246.328 122.052C246.033 121.243 245.919 120.379 245.995 119.521C246.071 118.664 246.334 117.833 246.766 117.089C247.198 116.344 247.788 115.703 248.495 115.212Z" stroke="#473C2B" stroke-width="0.1"/>
<path d="M624.208 226.624C620.197 226.624 618.064 224.704 617.808 220.864C617.723 219.243 618.192 217.835 619.216 216.64C620.24 215.531 621.776 214.933 623.824 214.848C627.323 214.677 629.499 214.165 630.352 213.312C631.205 212.459 631.632 210.667 631.632 207.936V183.872H626C620.027 183.872 615.333 183.232 611.92 181.952C608.592 180.587 606.245 178.453 604.88 175.552C603.515 172.565 602.832 168.597 602.832 163.648V156.096C602.832 151.061 603.515 147.093 604.88 144.192C606.245 141.205 608.592 139.072 611.92 137.792C615.333 136.512 620.027 135.872 626 135.872H626.256C626.853 134.08 627.451 132.075 628.048 129.856C628.731 127.637 629.328 125.717 629.84 124.096H609.488C604.709 124.096 600.912 124.608 598.096 125.632C595.365 126.656 593.403 128.405 592.208 130.88C591.099 133.355 590.544 136.811 590.544 141.248V152.512C590.544 162.667 590.117 171.669 589.264 179.52C588.496 187.371 587.173 194.453 585.296 200.768C583.504 207.083 581.029 213.056 577.872 218.688C577.104 220.139 575.909 221.077 574.288 221.504C572.752 222.016 571.259 221.931 569.808 221.248C568.272 220.565 567.333 219.456 566.992 217.92C566.651 216.469 566.864 215.061 567.632 213.696C570.533 208.576 572.837 203.157 574.544 197.44C576.251 191.723 577.488 185.237 578.256 177.984C579.024 170.645 579.408 162.112 579.408 152.384V141.12C579.408 134.293 580.347 128.875 582.224 124.864C584.187 120.768 587.344 117.867 591.696 116.16C596.133 114.368 602.021 113.472 609.36 113.472H678.096C679.632 113.472 680.869 114.027 681.808 115.136C682.747 116.16 683.216 117.397 683.216 118.848C683.216 120.213 682.747 121.451 681.808 122.56C680.869 123.584 679.632 124.096 678.096 124.096H642.896C642.299 125.888 641.659 127.893 640.976 130.112C640.293 132.245 639.653 134.165 639.056 135.872H648.144C654.203 135.872 658.896 136.512 662.224 137.792C665.637 139.072 668.027 141.205 669.392 144.192C670.757 147.093 671.44 151.061 671.44 156.096V163.648C671.44 168.597 670.757 172.565 669.392 175.552C668.027 178.453 665.637 180.587 662.224 181.952C658.896 183.232 654.203 183.872 648.144 183.872H643.152V209.728C643.152 215.701 641.744 220.011 638.928 222.656C636.197 225.301 631.291 226.624 624.208 226.624ZM626.64 173.76H647.632C652.411 173.76 655.611 173.163 657.232 171.968C658.853 170.773 659.707 168.213 659.792 164.288H614.352C614.437 168.213 615.291 170.773 616.912 171.968C618.619 173.163 621.861 173.76 626.64 173.76ZM594.384 216.128C593.275 215.019 592.72 213.653 592.72 212.032C592.72 210.325 593.36 208.96 594.64 207.936C597.456 205.717 600.357 202.944 603.344 199.616C606.416 196.288 608.891 193.301 610.768 190.656C611.621 189.461 612.816 188.736 614.352 188.48C615.973 188.224 617.381 188.523 618.576 189.376C619.856 190.315 620.581 191.509 620.752 192.96C620.923 194.411 620.581 195.776 619.728 197.056C617.595 200.299 615.035 203.627 612.048 207.04C609.061 210.368 606.075 213.312 603.088 215.872C601.808 216.981 600.357 217.579 598.736 217.664C597.115 217.835 595.664 217.323 594.384 216.128ZM614.352 154.944H659.792C659.707 151.275 658.811 148.885 657.104 147.776C655.483 146.581 652.325 145.984 647.632 145.984H626.64C621.947 145.984 618.747 146.581 617.04 147.776C615.419 148.885 614.523 151.275 614.352 154.944ZM671.696 216.384C669.904 214.763 667.899 212.843 665.68 210.624C663.547 208.32 661.456 206.016 659.408 203.712C657.445 201.323 655.781 199.147 654.416 197.184C653.563 195.989 653.221 194.667 653.392 193.216C653.648 191.765 654.373 190.613 655.568 189.76C656.763 188.907 658.085 188.565 659.536 188.736C661.072 188.907 662.267 189.589 663.12 190.784C664.485 192.491 666.149 194.453 668.112 196.672C670.075 198.891 672.08 201.024 674.128 203.072C676.261 205.12 678.181 206.827 679.888 208.192C681.083 209.131 681.723 210.411 681.808 212.032C681.979 213.568 681.467 214.933 680.272 216.128C679.077 217.323 677.669 217.92 676.048 217.92C674.427 218.005 672.976 217.493 671.696 216.384ZM740.432 222.4C733.52 222.4 727.675 221.931 722.896 220.992C718.117 220.053 714.235 218.389 711.248 216C708.347 213.525 706.213 210.112 704.848 205.76C703.568 201.408 702.928 195.776 702.928 188.864V145.984C702.928 139.072 703.568 133.44 704.848 129.088C706.213 124.736 708.347 121.365 711.248 118.976C714.235 116.501 718.117 114.795 722.896 113.856C727.675 112.917 733.52 112.448 740.432 112.448H772.432C779.344 112.448 785.189 112.917 789.968 113.856C794.747 114.795 798.587 116.501 801.488 118.976C804.475 121.365 806.651 124.736 808.016 129.088C809.381 133.44 810.064 139.072 810.064 145.984V188.864C810.064 195.776 809.381 201.408 808.016 205.76C806.651 210.112 804.475 213.525 801.488 216C798.587 218.389 794.747 220.053 789.968 220.992C785.189 221.931 779.344 222.4 772.432 222.4H740.432ZM740.432 211.776H772.432C778.832 211.776 783.909 211.221 787.664 210.112C791.504 208.917 794.235 206.699 795.856 203.456C797.477 200.128 798.288 195.264 798.288 188.864V145.984C798.288 139.584 797.477 134.72 795.856 131.392C794.235 128.064 791.504 125.845 787.664 124.736C783.909 123.541 778.832 122.944 772.432 122.944H740.432C734.032 122.944 728.955 123.541 725.2 124.736C721.445 125.845 718.715 128.064 717.008 131.392C715.387 134.72 714.576 139.584 714.576 145.984V188.864C714.576 195.264 715.387 200.128 717.008 203.456C718.715 206.699 721.445 208.917 725.2 210.112C728.955 211.221 734.032 211.776 740.432 211.776ZM730.832 202.816C729.211 203.84 727.547 204.224 725.84 203.968C724.133 203.712 722.768 202.859 721.744 201.408C720.891 200.043 720.635 198.592 720.976 197.056C721.403 195.52 722.213 194.411 723.408 193.728C729.979 190.144 735.568 185.792 740.176 180.672C744.784 175.467 747.856 168.725 749.392 160.448H725.584C724.048 160.448 722.811 159.936 721.872 158.912C720.933 157.888 720.464 156.693 720.464 155.328C720.464 153.877 720.933 152.64 721.872 151.616C722.811 150.592 724.048 150.08 725.584 150.08H750.288V134.336C750.288 132.544 750.843 131.136 751.952 130.112C753.147 129.003 754.555 128.448 756.176 128.448C757.883 128.448 759.291 129.003 760.4 130.112C761.509 131.136 762.064 132.544 762.064 134.336V150.08H787.152C788.773 150.08 790.053 150.592 790.992 151.616C791.931 152.64 792.4 153.877 792.4 155.328C792.4 156.693 791.931 157.888 790.992 158.912C790.053 159.936 788.773 160.448 787.152 160.448H763.216C764.496 164.544 766.459 168.597 769.104 172.608C771.749 176.619 774.907 180.331 778.576 183.744C782.245 187.072 786.128 189.973 790.224 192.448C791.504 193.131 792.272 194.325 792.528 196.032C792.869 197.653 792.656 199.104 791.888 200.384C790.949 201.92 789.584 202.859 787.792 203.2C786 203.541 784.379 203.243 782.928 202.304C777.979 199.061 773.2 195.093 768.592 190.4C763.984 185.707 760.187 180.331 757.2 174.272C754.725 179.989 751.269 185.195 746.832 189.888C742.48 194.581 737.147 198.891 730.832 202.816ZM890.576 219.328C884.773 219.328 879.867 217.92 875.856 215.104C871.931 212.288 869.968 207.936 869.968 202.048C869.968 196.757 871.845 192.576 875.6 189.504C879.44 186.347 884.475 184.768 890.704 184.768C892.24 184.768 893.733 184.811 895.184 184.896C896.72 184.981 898.256 185.152 899.792 185.408C899.707 180.885 899.579 175.808 899.408 170.176C899.323 164.459 899.195 158.656 899.024 152.768C894.245 153.024 889.595 153.237 885.072 153.408C880.635 153.579 876.752 153.621 873.424 153.536C871.803 153.536 870.437 152.939 869.328 151.744C868.219 150.549 867.707 149.184 867.792 147.648C867.877 146.027 868.475 144.661 869.584 143.552C870.779 142.443 872.187 141.931 873.808 142.016C877.136 142.101 880.976 142.144 885.328 142.144C889.68 142.059 894.16 141.888 898.768 141.632C898.683 138.048 898.64 134.592 898.64 131.264C898.64 127.851 898.64 124.736 898.64 121.92C898.64 120.299 899.195 118.933 900.304 117.824C901.413 116.715 902.779 116.16 904.4 116.16C906.021 116.16 907.387 116.715 908.496 117.824C909.605 118.933 910.16 120.299 910.16 121.92C910.16 124.992 910.16 128.107 910.16 131.264C910.245 134.421 910.288 137.579 910.288 140.736C914.213 140.395 917.883 140.053 921.296 139.712C924.795 139.285 927.867 138.859 930.512 138.432C932.048 138.091 933.456 138.389 934.736 139.328C936.101 140.267 936.912 141.547 937.168 143.168C937.424 144.704 937.083 146.155 936.144 147.52C935.291 148.8 934.053 149.568 932.432 149.824C929.616 150.165 926.331 150.549 922.576 150.976C918.821 151.317 914.811 151.659 910.544 152C910.715 158.912 910.885 165.525 911.056 171.84C911.227 178.155 911.355 183.573 911.44 188.096C916.133 189.461 920.613 191.211 924.88 193.344C929.232 195.477 933.029 197.739 936.272 200.128C937.552 201.067 938.32 202.347 938.576 203.968C938.917 205.504 938.619 206.912 937.68 208.192C936.741 209.557 935.461 210.368 933.84 210.624C932.219 210.88 930.768 210.539 929.488 209.6C927.269 207.893 924.581 206.229 921.424 204.608C918.352 202.901 915.109 201.365 911.696 200C911.44 212.885 904.4 219.328 890.576 219.328ZM847.568 219.456C845.947 219.797 844.453 219.499 843.088 218.56C841.808 217.621 841.04 216.384 840.784 214.848C840.272 212.032 839.888 208.235 839.632 203.456C839.376 198.592 839.205 193.173 839.12 187.2C839.035 181.141 839.035 174.869 839.12 168.384C839.291 161.899 839.547 155.584 839.888 149.44C840.229 143.296 840.656 137.707 841.168 132.672C841.765 127.637 842.448 123.584 843.216 120.512C843.643 118.976 844.496 117.781 845.776 116.928C847.141 116.075 848.592 115.861 850.128 116.288C851.749 116.629 852.944 117.483 853.712 118.848C854.565 120.213 854.821 121.664 854.48 123.2C853.712 126.443 853.029 130.496 852.432 135.36C851.835 140.139 851.365 145.387 851.024 151.104C850.683 156.821 850.427 162.667 850.256 168.64C850.171 174.613 850.171 180.416 850.256 186.048C850.341 191.68 850.555 196.843 850.896 201.536C851.237 206.144 851.664 209.899 852.176 212.8C852.432 214.336 852.091 215.744 851.152 217.024C850.299 218.389 849.104 219.2 847.568 219.456ZM890.576 208.576C894.075 208.576 896.507 207.808 897.872 206.272C899.323 204.651 900.048 202.304 900.048 199.232V196.416C896.72 195.648 893.563 195.264 890.576 195.264C887.163 195.264 884.731 195.947 883.28 197.312C881.829 198.592 881.104 200.171 881.104 202.048C881.104 203.925 881.829 205.504 883.28 206.784C884.731 207.979 887.163 208.576 890.576 208.576ZM1010.13 222.784C1003.3 222.784 997.669 222.357 993.232 221.504C988.795 220.651 985.296 219.072 982.736 216.768C980.176 214.464 978.341 211.264 977.232 207.168C976.208 202.987 975.696 197.611 975.696 191.04V158.144C975.696 150.379 976.421 144.277 977.872 139.84C979.408 135.403 982.053 132.203 985.808 130.24C989.648 128.277 994.981 127.083 1001.81 126.656C1002.41 125.205 1003.09 123.541 1003.86 121.664C1004.62 119.787 1005.35 117.952 1006.03 116.16C1006.8 114.368 1007.4 112.875 1007.82 111.68C1008.51 109.973 1009.62 108.736 1011.15 107.968C1012.69 107.2 1014.48 107.157 1016.53 107.84C1018.23 108.352 1019.43 109.419 1020.11 111.04C1020.88 112.576 1020.92 114.155 1020.24 115.776C1019.64 117.141 1018.87 118.848 1017.94 120.896C1017.08 122.859 1016.23 124.693 1015.38 126.4H1025.62C1032.44 126.4 1038.07 126.827 1042.51 127.68C1046.95 128.533 1050.45 130.112 1053.01 132.416C1055.57 134.72 1057.36 137.963 1058.38 142.144C1059.49 146.24 1060.05 151.573 1060.05 158.144V191.04C1060.05 197.611 1059.49 202.987 1058.38 207.168C1057.36 211.264 1055.57 214.464 1053.01 216.768C1050.45 219.072 1046.95 220.651 1042.51 221.504C1038.07 222.357 1032.44 222.784 1025.62 222.784H1010.13ZM987.6 183.104H1048.02V165.44H987.6V183.104ZM1010.13 211.776H1025.62C1031.67 211.776 1036.28 211.392 1039.44 210.624C1042.68 209.856 1044.9 208.192 1046.1 205.632C1047.29 203.072 1047.93 199.189 1048.02 193.984H987.6C987.771 199.189 988.453 203.072 989.648 205.632C990.843 208.192 993.019 209.856 996.176 210.624C999.419 211.392 1004.07 211.776 1010.13 211.776ZM987.6 154.688H1048.02C1047.93 149.568 1047.25 145.771 1045.97 143.296C1044.77 140.821 1042.6 139.2 1039.44 138.432C1036.28 137.664 1031.67 137.28 1025.62 137.28H1010.13C1004.15 137.28 999.547 137.664 996.304 138.432C993.147 139.2 990.928 140.821 989.648 143.296C988.453 145.771 987.771 149.568 987.6 154.688ZM1150.42 224.576C1145.98 224.576 1143.55 222.613 1143.12 218.688C1143.03 216.811 1143.63 215.317 1144.91 214.208C1146.19 213.013 1147.81 212.373 1149.78 212.288C1154.13 212.203 1157.5 211.904 1159.89 211.392C1162.28 210.795 1164.07 209.557 1165.26 207.68C1166.46 205.803 1167.4 202.901 1168.08 198.976C1168.51 196.501 1168.89 193.856 1169.23 191.04C1169.66 188.224 1170 185.237 1170.26 182.08C1170.51 179.008 1170.38 176.704 1169.87 175.168C1169.36 173.547 1168.21 172.48 1166.42 171.968C1164.71 171.371 1162.11 171.072 1158.61 171.072H1145.68C1145.08 178.923 1143.25 186.304 1140.18 193.216C1137.1 200.128 1132.71 206.229 1126.99 211.52C1121.36 216.811 1114.28 221.035 1105.74 224.192C1104.12 224.789 1102.5 224.832 1100.88 224.32C1099.34 223.808 1098.19 222.699 1097.42 220.992C1096.83 219.541 1096.87 218.091 1097.55 216.64C1098.32 215.189 1099.51 214.165 1101.14 213.568C1108.13 210.923 1113.94 207.424 1118.54 203.072C1123.24 198.72 1126.86 193.813 1129.42 188.352C1131.98 182.805 1133.52 177.045 1134.03 171.072H1118.16C1116.54 171.072 1115.13 170.517 1113.94 169.408C1112.83 168.213 1112.27 166.805 1112.27 165.184C1112.27 163.563 1112.83 162.197 1113.94 161.088C1115.13 159.979 1116.54 159.424 1118.16 159.424H1159.25C1165.65 159.424 1170.55 160.107 1173.97 161.472C1177.47 162.837 1179.81 165.099 1181.01 168.256C1182.29 171.328 1182.71 175.552 1182.29 180.928C1182.03 184.768 1181.69 188.352 1181.26 191.68C1180.92 194.923 1180.5 198.123 1179.98 201.28C1178.96 207.424 1177.34 212.203 1175.12 215.616C1172.99 218.944 1169.96 221.248 1166.03 222.528C1162.11 223.893 1156.9 224.576 1150.42 224.576ZM1198.29 168.256C1193.68 165.184 1189.11 161.557 1184.59 157.376C1180.07 153.195 1175.93 148.885 1172.18 144.448C1168.42 140.011 1165.35 135.829 1162.96 131.904C1161.68 129.685 1160.44 128.021 1159.25 126.912C1158.05 125.717 1156.6 124.907 1154.9 124.48C1153.27 124.053 1151.01 123.84 1148.11 123.84H1140.3C1138.68 123.84 1137.27 123.285 1136.08 122.176C1134.97 120.981 1134.42 119.573 1134.42 117.952C1134.42 116.331 1134.93 114.965 1135.95 113.856C1136.98 112.747 1138.3 112.192 1139.92 112.192H1148.11C1153.23 112.192 1157.24 112.576 1160.14 113.344C1163.13 114.112 1165.61 115.52 1167.57 117.568C1169.53 119.531 1171.62 122.389 1173.84 126.144C1176.14 129.813 1178.96 133.568 1182.29 137.408C1185.7 141.248 1189.46 144.875 1193.55 148.288C1197.65 151.701 1201.83 154.731 1206.1 157.376C1207.72 158.315 1208.74 159.68 1209.17 161.472C1209.59 163.264 1209.25 164.928 1208.14 166.464C1207.03 168.085 1205.5 169.067 1203.54 169.408C1201.66 169.749 1199.91 169.365 1198.29 168.256ZM1098.45 169.408C1096.91 170.432 1095.21 170.944 1093.33 170.944C1091.54 170.859 1090.04 170.091 1088.85 168.64C1087.74 167.189 1087.31 165.611 1087.57 163.904C1087.91 162.197 1088.85 160.832 1090.38 159.808C1093.37 157.845 1096.44 155.456 1099.6 152.64C1102.76 149.739 1105.83 146.667 1108.82 143.424C1111.8 140.181 1114.53 136.939 1117.01 133.696C1119.48 130.453 1121.57 127.424 1123.28 124.608C1124.22 123.157 1125.5 122.219 1127.12 121.792C1128.74 121.365 1130.28 121.621 1131.73 122.56C1133.18 123.413 1134.12 124.651 1134.54 126.272C1135.06 127.893 1134.84 129.429 1133.9 130.88C1131.26 135.403 1127.93 140.053 1123.92 144.832C1119.99 149.611 1115.81 154.133 1111.38 158.4C1106.94 162.667 1102.63 166.336 1098.45 169.408ZM1242.58 216C1241.04 216.341 1239.63 216.043 1238.35 215.104C1237.07 214.165 1236.26 212.928 1235.92 211.392C1235.15 207.467 1234.6 202.688 1234.26 197.056C1233.91 191.339 1233.74 185.195 1233.74 178.624C1233.74 172.053 1233.91 165.44 1234.26 158.784C1234.6 152.128 1235.11 145.856 1235.79 139.968C1236.47 134.08 1237.29 129.003 1238.22 124.736C1238.57 123.115 1239.42 121.877 1240.78 121.024C1242.15 120.171 1243.6 119.957 1245.14 120.384C1246.76 120.725 1247.95 121.579 1248.72 122.944C1249.57 124.309 1249.83 125.803 1249.49 127.424C1248.38 131.776 1247.48 136.725 1246.8 142.272C1246.12 147.819 1245.61 153.664 1245.26 159.808C1245.01 165.952 1244.88 172.053 1244.88 178.112C1244.97 184.085 1245.18 189.803 1245.52 195.264C1245.95 200.64 1246.54 205.333 1247.31 209.344C1247.57 210.88 1247.23 212.331 1246.29 213.696C1245.43 214.976 1244.2 215.744 1242.58 216ZM1295.44 208.576C1284.43 208.576 1276.28 206.528 1270.99 202.432C1265.79 198.336 1262.84 192.789 1262.16 185.792C1261.99 184.171 1262.37 182.763 1263.31 181.568C1264.34 180.288 1265.66 179.605 1267.28 179.52C1268.9 179.349 1270.31 179.776 1271.5 180.8C1272.78 181.739 1273.51 183.019 1273.68 184.64C1274.02 188.907 1275.94 192.107 1279.44 194.24C1282.94 196.373 1288.31 197.44 1295.57 197.44C1298.55 197.44 1302.18 197.227 1306.45 196.8C1310.71 196.288 1315.02 195.477 1319.38 194.368C1320.91 193.941 1322.32 194.197 1323.6 195.136C1324.97 196.075 1325.82 197.312 1326.16 198.848C1326.59 200.469 1326.33 201.92 1325.39 203.2C1324.54 204.48 1323.3 205.333 1321.68 205.76C1317.24 206.869 1312.76 207.637 1308.24 208.064C1303.8 208.405 1299.54 208.576 1295.44 208.576ZM1271.12 145.984C1269.5 146.325 1268.01 146.069 1266.64 145.216C1265.36 144.277 1264.55 142.997 1264.21 141.376C1263.95 139.84 1264.25 138.432 1265.1 137.152C1266.04 135.787 1267.28 134.933 1268.82 134.592C1272.06 133.909 1275.77 133.44 1279.95 133.184C1284.22 132.843 1288.57 132.672 1293.01 132.672C1297.53 132.587 1301.88 132.672 1306.06 132.928C1310.25 133.184 1314 133.611 1317.33 134.208C1318.86 134.549 1320.06 135.36 1320.91 136.64C1321.85 137.92 1322.19 139.371 1321.94 140.992C1321.59 142.528 1320.78 143.765 1319.5 144.704C1318.22 145.643 1316.77 145.941 1315.15 145.6C1300.47 142.955 1285.8 143.083 1271.12 145.984ZM1428.94 222.912C1427.41 223.424 1425.91 223.339 1424.46 222.656C1423.01 221.973 1422.03 220.864 1421.52 219.328C1421.01 217.877 1421.09 216.427 1421.78 214.976C1422.46 213.525 1423.57 212.544 1425.1 212.032C1432.78 209.301 1438.33 205.589 1441.74 200.896C1445.24 196.203 1446.99 191.253 1446.99 186.048C1446.99 180.757 1445.33 176.107 1442 172.096C1438.67 168.085 1433.59 165.397 1426.77 164.032C1425.49 171.029 1423.44 177.643 1420.62 183.872C1417.89 190.016 1414.65 195.477 1410.9 200.256C1411.32 200.939 1411.75 201.664 1412.18 202.432C1412.6 203.115 1413.03 203.797 1413.46 204.48C1414.31 205.76 1414.57 207.168 1414.22 208.704C1413.88 210.24 1413.03 211.477 1411.66 212.416C1410.3 213.269 1408.85 213.568 1407.31 213.312C1405.78 212.971 1404.58 212.117 1403.73 210.752C1403.56 210.411 1403.34 210.112 1403.09 209.856C1402.92 209.6 1402.75 209.301 1402.58 208.96C1398.91 212.117 1395.02 214.592 1390.93 216.384C1386.83 218.261 1382.65 219.2 1378.38 219.2C1373.09 219.2 1368.61 217.707 1364.94 214.72C1361.27 211.648 1359.44 206.613 1359.44 199.616C1359.44 193.131 1360.76 187.2 1363.41 181.824C1366.05 176.448 1369.68 171.755 1374.29 167.744C1378.9 163.648 1384.06 160.32 1389.78 157.76C1389.86 155.029 1389.95 152.256 1390.03 149.44C1390.2 146.539 1390.46 143.595 1390.8 140.608C1382.18 141.12 1374.63 141.248 1368.14 140.992C1366.52 140.907 1365.16 140.309 1364.05 139.2C1363.02 138.005 1362.55 136.597 1362.64 134.976C1362.73 133.355 1363.32 132.032 1364.43 131.008C1365.63 129.899 1367.03 129.387 1368.66 129.472C1375.57 129.728 1383.46 129.6 1392.34 129.088C1392.76 126.869 1393.15 124.693 1393.49 122.56C1393.91 120.341 1394.38 118.08 1394.9 115.776C1395.24 114.24 1396.05 113.045 1397.33 112.192C1398.69 111.253 1400.19 110.997 1401.81 111.424C1403.34 111.765 1404.54 112.619 1405.39 113.984C1406.33 115.264 1406.59 116.672 1406.16 118.208C1405.82 119.915 1405.48 121.621 1405.14 123.328C1404.88 124.949 1404.58 126.613 1404.24 128.32C1408.34 127.893 1412.26 127.467 1416.02 127.04C1419.77 126.528 1423.23 126.016 1426.38 125.504C1428.01 125.163 1429.46 125.461 1430.74 126.4C1432.02 127.339 1432.83 128.576 1433.17 130.112C1433.42 131.733 1433.08 133.184 1432.14 134.464C1431.29 135.744 1430.05 136.555 1428.43 136.896C1424.76 137.493 1420.71 138.048 1416.27 138.56C1411.83 138.987 1407.27 139.413 1402.58 139.84C1402.23 142.229 1401.98 144.619 1401.81 147.008C1401.72 149.397 1401.59 151.701 1401.42 153.92C1406.71 152.725 1411.92 152.128 1417.04 152.128C1425.83 152.128 1433.3 153.621 1439.44 156.608C1445.58 159.509 1450.28 163.52 1453.52 168.64C1456.85 173.675 1458.51 179.435 1458.51 185.92C1458.51 190.699 1457.49 195.477 1455.44 200.256C1453.39 204.949 1450.19 209.301 1445.84 213.312C1441.49 217.237 1435.86 220.437 1428.94 222.912ZM1378.38 207.808C1381.63 207.808 1384.87 207.04 1388.11 205.504C1391.35 203.883 1394.43 201.664 1397.33 198.848C1393.57 189.973 1391.23 180.16 1390.29 169.408C1384.31 172.565 1379.58 176.789 1376.08 182.08C1372.67 187.285 1370.96 193.173 1370.96 199.744C1370.96 205.12 1373.43 207.808 1378.38 207.808ZM1405.78 188.608C1408.17 184.939 1410.26 180.971 1412.05 176.704C1413.84 172.352 1415.21 167.787 1416.14 163.008C1410.94 163.093 1406.07 163.733 1401.55 164.928C1402.06 173.547 1403.47 181.44 1405.78 188.608ZM1540.69 219.072C1533.09 219.072 1527.25 217.536 1523.15 214.464C1519.06 211.392 1517.01 207.125 1517.01 201.664C1517.01 196.288 1518.97 192.107 1522.9 189.12C1526.82 186.048 1531.77 184.853 1537.74 185.536C1542.18 186.048 1545.64 187.371 1548.11 189.504C1550.59 191.637 1552.17 194.24 1552.85 197.312C1553.53 200.299 1553.4 203.413 1552.46 206.656C1555.96 205.461 1559.08 203.371 1561.81 200.384C1564.54 197.312 1565.9 192.917 1565.9 187.2C1565.9 183.189 1564.79 179.776 1562.58 176.96C1560.44 174.144 1557.46 172.096 1553.62 170.816C1549.78 169.536 1545.42 169.152 1540.56 169.664C1535.7 170.176 1530.53 171.712 1525.07 174.272C1519.61 176.747 1514.19 180.416 1508.82 185.28C1507.71 186.304 1506.34 186.731 1504.72 186.56C1503.1 186.304 1501.78 185.621 1500.75 184.512C1499.81 183.317 1499.34 181.909 1499.34 180.288C1499.43 178.667 1500.11 177.429 1501.39 176.576C1506.85 172.395 1512.23 168.085 1517.52 163.648C1522.9 159.125 1527.97 154.688 1532.75 150.336C1537.53 145.899 1541.84 141.803 1545.68 138.048C1548.84 134.976 1549.9 132.587 1548.88 130.88C1547.86 129.088 1545.42 128.405 1541.58 128.832C1539.71 129.003 1537.49 129.259 1534.93 129.6C1532.37 129.941 1529.72 130.283 1526.99 130.624C1524.35 130.88 1521.96 131.179 1519.82 131.52C1518.29 131.776 1516.88 131.435 1515.6 130.496C1514.32 129.472 1513.55 128.192 1513.3 126.656C1513.13 125.035 1513.51 123.627 1514.45 122.432C1515.39 121.152 1516.67 120.384 1518.29 120.128C1519.82 119.872 1521.96 119.659 1524.69 119.488C1527.42 119.232 1530.23 118.976 1533.14 118.72C1536.12 118.464 1538.68 118.251 1540.82 118.08C1546.28 117.653 1550.67 118.293 1554 120C1557.41 121.621 1559.67 123.883 1560.78 126.784C1561.98 129.685 1561.98 132.843 1560.78 136.256C1559.59 139.669 1557.11 142.997 1553.36 146.24C1551.14 148.117 1548.37 150.507 1545.04 153.408C1541.8 156.224 1538.55 158.955 1535.31 161.6C1540.43 159.893 1545.47 159.253 1550.42 159.68C1555.45 160.021 1559.97 161.301 1563.98 163.52C1568.08 165.739 1571.32 168.853 1573.71 172.864C1576.19 176.789 1577.42 181.568 1577.42 187.2C1577.42 194.709 1575.8 200.811 1572.56 205.504C1569.4 210.197 1565.05 213.653 1559.5 215.872C1554.04 218.005 1547.77 219.072 1540.69 219.072ZM1540.94 208.192C1542.22 204.608 1542.39 201.749 1541.46 199.616C1540.6 197.483 1538.94 196.331 1536.46 196.16C1534.07 195.904 1532.11 196.245 1530.58 197.184C1529.13 198.037 1528.4 199.659 1528.4 202.048C1528.4 204.011 1529.34 205.547 1531.22 206.656C1533.09 207.68 1536.34 208.192 1540.94 208.192ZM1633.49 223.424C1630.07 223.424 1626.92 222.571 1624.02 220.864C1621.2 219.157 1618.94 216.896 1617.23 214.08C1615.53 211.179 1614.67 208.021 1614.67 204.608C1614.67 201.109 1615.53 197.952 1617.23 195.136C1618.94 192.235 1621.2 189.973 1624.02 188.352C1626.92 186.645 1630.07 185.792 1633.49 185.792C1636.99 185.792 1640.14 186.645 1642.96 188.352C1645.78 189.973 1648.04 192.235 1649.74 195.136C1651.45 197.952 1652.3 201.109 1652.3 204.608C1652.3 208.021 1651.45 211.179 1649.74 214.08C1648.04 216.896 1645.78 219.157 1642.96 220.864C1640.14 222.571 1636.99 223.424 1633.49 223.424ZM1633.49 216C1636.65 216 1639.33 214.891 1641.55 212.672C1643.77 210.453 1644.88 207.765 1644.88 204.608C1644.88 201.451 1643.77 198.763 1641.55 196.544C1639.33 194.325 1636.65 193.216 1633.49 193.216C1630.33 193.216 1627.64 194.368 1625.42 196.672C1623.21 198.891 1622.1 201.536 1622.1 204.608C1622.1 207.68 1623.21 210.368 1625.42 212.672C1627.64 214.891 1630.33 216 1633.49 216ZM625.232 416.704C624.123 415.595 623.611 414.315 623.696 412.864C623.867 411.499 624.507 410.347 625.616 409.408C632.187 403.776 637.563 396.352 641.744 387.136C646.011 377.92 648.144 366.784 648.144 353.728V343.744C648.144 342.123 648.656 340.885 649.68 340.032C650.704 339.093 651.941 338.624 653.392 338.624C654.843 338.624 656.08 339.093 657.104 340.032C658.128 340.885 658.64 342.123 658.64 343.744V353.728C658.64 362.517 659.749 370.368 661.968 377.28C664.272 384.107 667.387 390.123 671.312 395.328C675.237 400.448 679.632 404.885 684.496 408.64C685.776 409.493 686.501 410.731 686.672 412.352C686.843 413.973 686.331 415.381 685.136 416.576C683.941 417.856 682.533 418.453 680.912 418.368C679.291 418.283 677.84 417.685 676.56 416.576C671.355 411.968 666.789 406.763 662.864 400.96C659.024 395.157 655.995 388.8 653.776 381.888C649.936 395.797 643.152 407.36 633.424 416.576C632.315 417.685 630.949 418.283 629.328 418.368C627.792 418.453 626.427 417.899 625.232 416.704ZM606.928 419.136C605.392 419.136 604.112 418.624 603.088 417.6C602.064 416.661 601.509 415.381 601.424 413.76C601.339 412.309 601.765 410.987 602.704 409.792C603.728 408.683 604.965 408.085 606.416 408C608.635 407.744 610.299 407.488 611.408 407.232C612.517 406.891 613.243 406.251 613.584 405.312C614.011 404.373 614.224 402.923 614.224 400.96V370.112H571.344C569.893 370.112 568.699 369.643 567.76 368.704C566.907 367.68 566.48 366.485 566.48 365.12C566.48 363.755 566.907 362.603 567.76 361.664C568.699 360.64 569.893 360.128 571.344 360.128H630.48C631.931 360.128 633.083 360.64 633.936 361.664C634.875 362.603 635.344 363.755 635.344 365.12C635.344 366.485 634.875 367.68 633.936 368.704C633.083 369.643 631.931 370.112 630.48 370.112H624.976V403.008C624.976 408.64 623.611 412.736 620.88 415.296C618.149 417.856 613.499 419.136 606.928 419.136ZM609.104 359.232C607.483 359.232 606.16 358.805 605.136 357.952C604.197 357.013 603.643 355.776 603.472 354.24C603.387 352.704 603.856 351.424 604.88 350.4C605.904 349.376 607.099 348.821 608.464 348.736C611.195 348.565 612.816 348.181 613.328 347.584C613.925 346.901 614.224 345.365 614.224 342.976V316.352H572.24C570.789 316.352 569.595 315.883 568.656 314.944C567.803 313.92 567.376 312.725 567.376 311.36C567.376 309.995 567.803 308.843 568.656 307.904C569.595 306.965 570.789 306.496 572.24 306.496H629.968C631.419 306.496 632.571 306.965 633.424 307.904C634.363 308.843 634.832 309.995 634.832 311.36C634.832 312.725 634.363 313.92 633.424 314.944C632.571 315.883 631.419 316.352 629.968 316.352H624.976V345.408C624.976 350.187 623.739 353.685 621.264 355.904C618.875 358.123 614.821 359.232 609.104 359.232ZM665.808 357.312C664.272 356.629 663.248 355.563 662.736 354.112C662.309 352.661 662.48 351.339 663.248 350.144C664.272 348.437 665.253 346.816 666.192 345.28C667.131 343.659 667.899 342.165 668.496 340.8C669.691 338.411 669.947 336.704 669.264 335.68C668.667 334.571 667.088 334.016 664.528 334.016H645.84C644.645 336.747 643.365 339.435 642 342.08C640.635 344.725 639.227 347.285 637.776 349.76C636.923 351.125 635.771 352.064 634.32 352.576C632.955 353.003 631.547 352.875 630.096 352.192C628.731 351.509 627.792 350.443 627.28 348.992C626.853 347.456 627.067 346.091 627.92 344.896C630.224 341.397 632.443 337.344 634.576 332.736C636.795 328.128 638.715 323.392 640.336 318.528C641.957 313.579 643.152 309.056 643.92 304.96C644.261 303.339 644.987 302.144 646.096 301.376C647.291 300.523 648.699 300.267 650.32 300.608C651.856 300.864 653.051 301.547 653.904 302.656C654.843 303.68 655.099 305.045 654.672 306.752C654.16 309.483 653.477 312.299 652.624 315.2C651.856 318.016 650.96 320.832 649.936 323.648H667.984C673.616 323.648 677.584 325.269 679.888 328.512C682.277 331.669 682.277 335.808 679.888 340.928C678.864 343.061 677.797 345.237 676.688 347.456C675.579 349.589 674.299 351.893 672.848 354.368C672.165 355.648 671.184 356.629 669.904 357.312C668.624 357.909 667.259 357.909 665.808 357.312ZM590.672 404.8C584.784 404.8 580.645 403.776 578.256 401.728C575.867 399.68 574.672 395.883 574.672 390.336C574.672 384.789 575.867 380.992 578.256 378.944C580.645 376.811 584.784 375.744 590.672 375.744C596.475 375.744 600.571 376.811 602.96 378.944C605.435 380.992 606.672 384.789 606.672 390.336C606.672 395.883 605.435 399.68 602.96 401.728C600.571 403.776 596.475 404.8 590.672 404.8ZM590.8 349.504C584.997 349.504 580.901 348.523 578.512 346.56C576.123 344.512 574.928 340.885 574.928 335.68C574.928 330.389 576.123 326.763 578.512 324.8C580.901 322.752 584.997 321.728 590.8 321.728C596.603 321.728 600.656 322.752 602.96 324.8C605.349 326.763 606.544 330.389 606.544 335.68C606.544 340.885 605.349 344.512 602.96 346.56C600.656 348.523 596.603 349.504 590.8 349.504ZM590.672 395.84C593.317 395.84 594.981 395.499 595.664 394.816C596.347 394.133 596.688 392.64 596.688 390.336C596.688 387.947 596.347 386.411 595.664 385.728C594.981 385.045 593.317 384.704 590.672 384.704C588.027 384.704 586.32 385.045 585.552 385.728C584.869 386.411 584.528 387.947 584.528 390.336C584.528 392.64 584.869 394.133 585.552 394.816C586.32 395.499 588.027 395.84 590.672 395.84ZM590.8 340.8C593.445 340.8 595.109 340.459 595.792 339.776C596.475 339.093 596.816 337.728 596.816 335.68C596.816 333.547 596.475 332.139 595.792 331.456C595.109 330.773 593.445 330.432 590.8 330.432C588.155 330.432 586.491 330.773 585.808 331.456C585.125 332.139 584.784 333.547 584.784 335.68C584.784 337.728 585.125 339.093 585.808 339.776C586.491 340.459 588.155 340.8 590.8 340.8ZM702.16 375.872C700.795 375.872 699.685 375.403 698.832 374.464C698.064 373.525 697.68 372.416 697.68 371.136C697.68 369.941 698.064 368.875 698.832 367.936C699.685 366.997 700.795 366.528 702.16 366.528H728.656V358.72H709.584C708.219 358.72 707.152 358.251 706.384 357.312C705.616 356.373 705.232 355.307 705.232 354.112C705.232 352.917 705.616 351.893 706.384 351.04C707.152 350.101 708.219 349.632 709.584 349.632H728.656V342.336H711.376C710.267 342.336 709.285 341.995 708.432 341.312C707.664 340.544 707.195 339.648 707.024 338.624C706.597 338.965 706.085 339.264 705.488 339.52C704.976 339.691 704.379 339.776 703.696 339.776C702.331 339.776 701.136 339.307 700.112 338.368C699.173 337.429 698.704 336.192 698.704 334.656V329.792C698.704 323.989 699.984 319.936 702.544 317.632C705.189 315.243 709.84 314.048 716.496 314.048H728.4V305.6C728.4 303.893 728.955 302.571 730.064 301.632C731.173 300.608 732.496 300.096 734.032 300.096C735.653 300.096 737.019 300.608 738.128 301.632C739.237 302.571 739.792 303.893 739.792 305.6V314.048H751.184C757.755 314.048 762.363 315.243 765.008 317.632C767.653 319.936 768.976 323.989 768.976 329.792V334.656C768.976 336.192 768.464 337.429 767.44 338.368C766.501 339.221 765.307 339.648 763.856 339.648C762.832 339.648 761.851 339.392 760.912 338.88C760.656 339.819 760.144 340.629 759.376 341.312C758.693 341.995 757.755 342.336 756.56 342.336H739.536V349.632H758.096C759.376 349.632 760.4 350.101 761.168 351.04C761.936 351.893 762.32 352.917 762.32 354.112C762.32 355.307 761.936 356.373 761.168 357.312C760.4 358.251 759.376 358.72 758.096 358.72H739.536V366.528H765.904C767.269 366.528 768.336 366.997 769.104 367.936C769.957 368.875 770.384 369.941 770.384 371.136C770.384 372.416 769.957 373.525 769.104 374.464C768.336 375.403 767.269 375.872 765.904 375.872H702.16ZM729.68 417.216C724.475 417.216 720.421 416.661 717.52 415.552C714.619 414.528 712.613 412.736 711.504 410.176C710.395 407.701 709.84 404.288 709.84 399.936C709.84 395.499 710.395 392.043 711.504 389.568C712.613 387.008 714.619 385.216 717.52 384.192C720.421 383.083 724.475 382.528 729.68 382.528H741.072C746.363 382.528 750.416 383.083 753.232 384.192C756.133 385.216 758.139 387.008 759.248 389.568C760.357 392.043 760.912 395.499 760.912 399.936C760.912 404.288 760.357 407.701 759.248 410.176C758.139 412.736 756.133 414.528 753.232 415.552C750.416 416.661 746.363 417.216 741.072 417.216H729.68ZM788.56 418.24C786.939 418.24 785.573 417.685 784.464 416.576C783.355 415.552 782.757 414.229 782.672 412.608C782.587 410.987 783.013 409.579 783.952 408.384C784.891 407.275 786.213 406.677 787.92 406.592C791.077 406.421 793.424 406.123 794.96 405.696C796.496 405.184 797.52 404.288 798.032 403.008C798.544 401.728 798.8 399.808 798.8 397.248V305.856C798.8 304.235 799.312 302.955 800.336 302.016C801.445 300.992 802.768 300.48 804.304 300.48C805.755 300.48 806.992 300.992 808.016 302.016C809.125 302.955 809.68 304.235 809.68 305.856V399.04C809.68 403.904 809.083 407.701 807.888 410.432C806.693 413.248 804.56 415.253 801.488 416.448C798.416 417.643 794.107 418.24 788.56 418.24ZM781.392 388.416C779.856 388.416 778.533 387.904 777.424 386.88C776.4 385.856 775.888 384.533 775.888 382.912V314.944C775.888 313.323 776.4 312.043 777.424 311.104C778.533 310.08 779.856 309.568 781.392 309.568C782.843 309.568 784.08 310.08 785.104 311.104C786.213 312.043 786.768 313.323 786.768 314.944V382.912C786.768 384.533 786.213 385.856 785.104 386.88C784.08 387.904 782.843 388.416 781.392 388.416ZM730.832 407.36H740.048C744.229 407.36 746.917 406.848 748.112 405.824C749.307 404.8 749.904 402.795 749.904 399.808C749.904 396.821 749.307 394.816 748.112 393.792C746.917 392.768 744.229 392.256 740.048 392.256H730.832C726.736 392.256 724.091 392.768 722.896 393.792C721.787 394.816 721.232 396.821 721.232 399.808C721.232 402.795 721.787 404.8 722.896 405.824C724.091 406.848 726.736 407.36 730.832 407.36ZM708.816 333.76C709.584 333.163 710.437 332.864 711.376 332.864H728.656V329.408C728.656 327.872 729.168 326.635 730.192 325.696C731.301 324.672 732.581 324.16 734.032 324.16C735.568 324.16 736.848 324.672 737.872 325.696C738.981 326.635 739.536 327.872 739.536 329.408V332.864H756.56C757.413 332.864 758.181 333.077 758.864 333.504V331.072C758.864 327.915 758.224 325.824 756.944 324.8C755.664 323.776 753.275 323.264 749.776 323.264H717.776C714.277 323.264 711.888 323.776 710.608 324.8C709.413 325.824 708.816 327.915 708.816 331.072V333.76ZM883.664 412.48C882.469 411.371 881.829 409.963 881.744 408.256C881.744 406.549 882.299 405.141 883.408 404.032C887.504 400.107 891.131 395.157 894.288 389.184C897.531 383.211 900.048 376.512 901.84 369.088C903.632 361.579 904.528 353.728 904.528 345.536C904.528 338.453 903.419 333.205 901.2 329.792C899.067 326.379 895.525 324.672 890.576 324.672C887.163 324.672 883.835 326.293 880.592 329.536C877.349 332.779 874.832 337.344 873.04 343.232C871.333 349.12 870.864 356.032 871.632 363.968C871.803 365.419 871.376 366.699 870.352 367.808C869.413 368.917 868.219 369.557 866.768 369.728C865.403 369.813 864.123 369.429 862.928 368.576C861.733 367.637 861.051 366.485 860.88 365.12C860.283 361.024 859.899 356.373 859.728 351.168C859.643 345.963 859.643 340.715 859.728 335.424C859.899 330.048 860.112 325.013 860.368 320.32C860.709 315.627 861.051 311.744 861.392 308.672C861.563 307.136 862.245 305.899 863.44 304.96C864.72 304.021 866.128 303.637 867.664 303.808C869.2 303.893 870.437 304.576 871.376 305.856C872.4 307.051 872.784 308.416 872.528 309.952C872.272 312.085 871.973 314.731 871.632 317.888C871.291 321.045 871.035 324.245 870.864 327.488C873.339 323.051 876.325 319.552 879.824 316.992C883.408 314.347 887.163 313.024 891.088 313.024C899.195 313.024 905.381 315.797 909.648 321.344C914 326.805 916.176 334.869 916.176 345.536C916.176 354.155 915.28 362.56 913.488 370.752C911.696 378.944 909.008 386.581 905.424 393.664C901.84 400.661 897.403 406.848 892.112 412.224C891.003 413.333 889.595 413.931 887.888 414.016C886.267 414.101 884.859 413.589 883.664 412.48ZM984.144 401.728C982.779 402.581 981.285 402.837 979.664 402.496C978.128 402.069 976.891 401.173 975.952 399.808C975.099 398.443 974.843 396.949 975.184 395.328C975.611 393.707 976.507 392.469 977.872 391.616C984.187 388.032 990.544 383.552 996.944 378.176C1003.43 372.715 1009.57 366.827 1015.38 360.512C1021.18 354.197 1026.34 347.797 1030.86 341.312C1035.47 334.827 1039.1 328.64 1041.74 322.752C1042.43 321.301 1043.54 320.277 1045.07 319.68C1046.61 319.083 1048.1 319.125 1049.55 319.808C1051.09 320.405 1052.15 321.515 1052.75 323.136C1053.35 324.672 1053.31 326.165 1052.62 327.616C1049.81 333.845 1046.01 340.373 1041.23 347.2C1036.54 353.941 1031.12 360.64 1024.98 367.296C1018.92 373.952 1012.39 380.224 1005.39 386.112C998.48 392 991.397 397.205 984.144 401.728ZM1108.43 366.144C1106.81 366.144 1105.4 365.589 1104.21 364.48C1103.1 363.285 1102.54 361.877 1102.54 360.256C1102.54 358.549 1103.1 357.141 1104.21 356.032C1105.4 354.923 1106.81 354.368 1108.43 354.368H1188.18C1189.8 354.368 1191.16 354.923 1192.27 356.032C1193.47 357.141 1194.06 358.549 1194.06 360.256C1194.06 361.877 1193.47 363.285 1192.27 364.48C1191.16 365.589 1189.8 366.144 1188.18 366.144H1108.43ZM1270.48 410.816C1268.86 410.816 1267.45 410.219 1266.26 409.024C1265.15 407.829 1264.59 406.421 1264.59 404.8V316.48C1264.59 314.859 1265.15 313.493 1266.26 312.384C1267.45 311.189 1268.86 310.592 1270.48 310.592C1272.19 310.592 1273.59 311.189 1274.7 312.384C1275.9 313.493 1276.5 314.859 1276.5 316.48V404.8C1276.5 406.421 1275.9 407.829 1274.7 409.024C1273.59 410.219 1272.19 410.816 1270.48 410.816ZM1308.37 373.952C1305.98 372.075 1303.12 370.027 1299.79 367.808C1296.55 365.589 1293.22 363.413 1289.81 361.28C1286.39 359.061 1283.19 357.099 1280.21 355.392C1278.84 354.624 1277.9 353.472 1277.39 351.936C1276.88 350.4 1276.97 348.907 1277.65 347.456C1278.42 346.005 1279.57 345.067 1281.1 344.64C1282.73 344.128 1284.26 344.213 1285.71 344.896C1289.13 346.603 1292.67 348.608 1296.34 350.912C1300.09 353.131 1303.67 355.435 1307.09 357.824C1310.59 360.213 1313.62 362.475 1316.18 364.608C1317.46 365.717 1318.18 367.125 1318.35 368.832C1318.52 370.453 1318.05 371.904 1316.94 373.184C1315.83 374.464 1314.47 375.189 1312.85 375.36C1311.23 375.445 1309.73 374.976 1308.37 373.952Z" fill="#473C2B"/>
<path d="M1464.41 305.33L1413.95 290.213C1413.2 289.987 1412.4 289.94 1411.63 290.076C1410.85 290.212 1410.12 290.527 1409.49 290.996C1408.86 291.464 1408.35 292.074 1407.99 292.776C1407.64 293.478 1407.45 294.252 1407.45 295.038V363.23C1402.29 358.614 1395.69 355.909 1388.77 355.567C1381.84 355.226 1375.01 357.268 1369.41 361.352C1363.82 365.437 1359.79 371.317 1358.01 378.009C1356.23 384.701 1356.81 391.8 1359.64 398.119C1362.48 404.439 1367.39 409.596 1373.58 412.728C1379.76 415.861 1386.83 416.779 1393.61 415.33C1400.39 413.881 1406.46 410.152 1410.82 404.767C1415.18 399.381 1417.55 392.666 1417.55 385.742V332.044L1461.5 345.215C1462.26 345.441 1463.05 345.487 1463.83 345.351C1464.6 345.216 1465.33 344.901 1465.97 344.432C1466.6 343.963 1467.11 343.354 1467.46 342.652C1467.82 341.95 1468 341.175 1468 340.39V310.155C1468 309.072 1467.65 308.017 1467 307.148C1466.35 306.279 1465.44 305.642 1464.41 305.33Z" fill="#473C2B"/>
</svg>
