<svg width="1250" height="896" viewBox="0 0 1250 896" fill="none" xmlns="http://www.w3.org/2000/svg">
<circle cx="625" cy="256" r="255.5" fill="#FFFCF6" stroke="#473C2B"/>
<path d="M599.898 140.992C599.285 140.379 598.546 139.908 597.732 139.612C596.917 139.316 596.048 139.202 595.185 139.279C594.322 139.355 593.486 139.619 592.737 140.054C591.987 140.488 591.342 141.081 590.846 141.792C578.346 159.633 571.647 180.893 571.662 202.677C571.672 207.344 571.984 212.005 572.595 216.632L469.624 357.068C466.253 361.627 464.636 367.246 465.069 372.899C465.501 378.551 467.954 383.859 471.979 387.852L493.148 409.021C497.141 413.046 502.449 415.499 508.101 415.931C513.754 416.364 519.373 414.747 523.932 411.377L664.383 308.375C669.004 308.996 673.66 309.318 678.323 309.338C700.099 309.358 721.353 302.67 739.193 290.183C739.904 289.688 740.497 289.043 740.932 288.293C741.366 287.543 741.63 286.707 741.707 285.845C741.783 284.982 741.669 284.112 741.373 283.298C741.077 282.484 740.606 281.745 739.993 281.132L599.898 140.992ZM603.764 293.991L580.062 317.693C578.972 318.84 577.664 319.757 576.214 320.39C574.765 321.023 573.203 321.36 571.622 321.38C570.04 321.401 568.47 321.104 567.005 320.508C565.539 319.912 564.208 319.029 563.09 317.91C561.971 316.792 561.088 315.461 560.492 313.995C559.896 312.53 559.599 310.96 559.62 309.378C559.64 307.797 559.977 306.235 560.61 304.786C561.243 303.336 562.16 302.028 563.307 300.938L587.009 277.236C589.25 275.107 592.234 273.938 595.324 273.978C598.414 274.017 601.367 275.262 603.552 277.448C605.738 279.633 606.983 282.586 607.022 285.676C607.062 288.766 605.893 291.75 603.764 293.991ZM765.829 263.533C765.334 264.246 764.688 264.842 763.937 265.278C763.186 265.713 762.348 265.979 761.483 266.055C760.618 266.131 759.747 266.017 758.931 265.719C758.116 265.422 757.375 264.948 756.763 264.333L616.667 124.237C616.052 123.625 615.578 122.884 615.281 122.069C614.983 121.253 614.869 120.382 614.945 119.517C615.021 118.652 615.287 117.814 615.722 117.063C616.158 116.313 616.754 115.666 617.467 115.171C637.987 100.853 662.892 94.2121 687.817 96.4133C712.742 98.6144 736.097 109.517 753.79 127.21C771.483 144.903 782.386 168.258 784.587 193.183C786.788 218.108 780.147 243.013 765.829 263.533Z" fill="#FFBD84"/>
<mask id="mask0_19_252" style="mask-type:alpha" maskUnits="userSpaceOnUse" x="465" y="96" width="320" height="320">
<path d="M595.194 139.378C596.043 139.303 596.897 139.415 597.697 139.706C598.498 139.997 599.225 140.46 599.827 141.062L739.923 281.203C740.525 281.805 740.988 282.532 741.279 283.332C741.57 284.132 741.682 284.988 741.607 285.836C741.532 286.684 741.272 287.506 740.845 288.243C740.418 288.98 739.834 289.614 739.136 290.102C721.312 302.577 700.079 309.259 678.323 309.238C673.665 309.218 669.013 308.896 664.396 308.275L664.356 308.271L664.323 308.294L523.872 411.296C519.333 414.652 513.737 416.262 508.108 415.831C502.48 415.4 497.194 412.958 493.219 408.95L472.05 387.781C468.042 383.806 465.6 378.52 465.169 372.892C464.752 367.439 466.249 362.017 469.395 357.557L469.704 357.128L572.676 216.691L572.7 216.659L572.694 216.619C572.083 211.997 571.771 207.339 571.762 202.677C571.747 180.913 578.439 159.674 590.928 141.85L590.929 141.849C591.416 141.15 592.05 140.567 592.787 140.141C593.524 139.714 594.346 139.453 595.194 139.378ZM595.325 273.878C592.209 273.838 589.2 275.017 586.94 277.163L562.815 301.288C561.855 302.297 561.077 303.466 560.519 304.745C559.88 306.207 559.54 307.782 559.52 309.377C559.499 310.972 559.798 312.556 560.399 314.033C561 315.511 561.892 316.854 563.02 317.981C564.147 319.109 565.489 320 566.967 320.601C568.444 321.202 570.028 321.501 571.623 321.48C573.218 321.46 574.793 321.12 576.255 320.481C577.716 319.843 579.034 318.918 580.132 317.763L580.133 317.764L603.837 294.06C605.983 291.8 607.162 288.791 607.122 285.675C607.082 282.558 605.827 279.581 603.623 277.377C601.419 275.173 598.442 273.918 595.325 273.878ZM617.524 115.253C638.025 100.948 662.906 94.3137 687.808 96.5127C712.709 98.7118 736.043 109.604 753.72 127.28C771.396 144.957 782.288 168.291 784.487 193.192C786.686 218.094 780.052 242.975 765.747 263.476C765.26 264.177 764.625 264.763 763.887 265.191C763.149 265.62 762.325 265.88 761.475 265.955C760.624 266.03 759.768 265.918 758.966 265.625C758.164 265.332 757.436 264.868 756.834 264.263H756.833L616.737 124.167V124.166C616.132 123.564 615.668 122.836 615.375 122.034C615.082 121.232 614.97 120.376 615.045 119.525C615.12 118.675 615.38 117.851 615.809 117.113C616.237 116.375 616.823 115.74 617.524 115.253Z" fill="#FFBD84" stroke="#473C2B" stroke-width="0.2"/>
</mask>
<g mask="url(#mask0_19_252)">
<line x1="601.089" y1="419.94" x2="561.089" y2="210.94" stroke="#FFE96D" stroke-width="10"/>
<line x1="585.089" y1="419.94" x2="545.089" y2="210.94" stroke="#C3C4C2" stroke-width="10"/>
<line x1="569.089" y1="419.94" x2="529.089" y2="210.94" stroke="#F9C5E2" stroke-width="10"/>
<line x1="553.089" y1="419.94" x2="513.089" y2="210.94" stroke="#72ADFF" stroke-width="10"/>
<line x1="537.089" y1="419.94" x2="497.089" y2="210.94" stroke="#FF9191" stroke-width="10"/>
<line x1="519.089" y1="419.94" x2="479.089" y2="210.94" stroke="#7BA56F" stroke-width="10"/>
<line x1="503.089" y1="419.94" x2="463.089" y2="210.94" stroke="#9282A3" stroke-width="10"/>
</g>
<path d="M595.189 139.328C596.045 139.252 596.908 139.366 597.715 139.659C598.522 139.953 599.255 140.42 599.862 141.027L739.958 281.167C740.566 281.774 741.033 282.508 741.326 283.315C741.62 284.123 741.733 284.984 741.657 285.84C741.582 286.695 741.319 287.524 740.889 288.268C740.458 289.011 739.87 289.651 739.165 290.143C721.333 302.624 700.089 309.309 678.323 309.288C673.663 309.268 669.008 308.946 664.39 308.325L664.369 308.322L664.354 308.335L523.902 411.336H523.901C519.353 414.699 513.746 416.312 508.105 415.881C502.465 415.449 497.168 413.002 493.184 408.986V408.985L472.015 387.816H472.014C467.998 383.832 465.551 378.536 465.119 372.896C464.688 367.255 466.301 361.647 469.664 357.099V357.098L572.636 216.661L572.647 216.646L572.645 216.625C572.033 212.001 571.722 207.341 571.712 202.677C571.697 180.903 578.392 159.653 590.887 141.82H590.888C591.379 141.116 592.018 140.527 592.762 140.097C593.505 139.666 594.334 139.404 595.189 139.328ZM595.324 273.928C592.221 273.888 589.225 275.063 586.975 277.2H586.974L563.272 300.902C562.121 301.996 561.2 303.31 560.564 304.766C559.928 306.221 559.59 307.79 559.569 309.378C559.549 310.966 559.847 312.542 560.445 314.014C561.044 315.485 561.931 316.822 563.055 317.945C564.178 319.069 565.515 319.956 566.986 320.555C568.458 321.153 570.034 321.451 571.622 321.431C573.21 321.41 574.779 321.072 576.234 320.436C577.69 319.8 579.003 318.88 580.097 317.729L603.8 294.026V294.025C605.937 291.775 607.112 288.779 607.072 285.676C607.033 282.572 605.782 279.607 603.588 277.412C601.393 275.218 598.428 273.967 595.324 273.928ZM617.495 115.212C638.006 100.9 662.899 94.2628 687.812 96.4629C712.726 98.6631 736.07 109.56 753.755 127.245C771.44 144.93 782.337 168.274 784.537 193.188C786.737 218.101 780.1 242.994 765.788 263.505C765.297 264.212 764.656 264.802 763.911 265.234C763.167 265.666 762.336 265.929 761.479 266.005C760.621 266.081 759.757 265.967 758.948 265.672C758.14 265.377 757.405 264.908 756.798 264.298L616.702 124.202C616.092 123.595 615.623 122.86 615.328 122.052C615.033 121.243 614.919 120.379 614.995 119.521C615.071 118.664 615.334 117.833 615.766 117.089C616.198 116.344 616.788 115.703 617.495 115.212Z" stroke="#473C2B" stroke-width="0.1"/>
<path d="M139.403 674.624C135.392 674.624 133.259 672.704 133.003 668.864C132.918 667.243 133.387 665.835 134.411 664.64C135.435 663.531 136.971 662.933 139.019 662.848C142.518 662.677 144.694 662.165 145.547 661.312C146.4 660.459 146.827 658.667 146.827 655.936V631.872H141.195C135.222 631.872 130.528 631.232 127.115 629.952C123.787 628.587 121.44 626.453 120.075 623.552C118.71 620.565 118.027 616.597 118.027 611.648V604.096C118.027 599.061 118.71 595.093 120.075 592.192C121.44 589.205 123.787 587.072 127.115 585.792C130.528 584.512 135.222 583.872 141.195 583.872H141.451C142.048 582.08 142.646 580.075 143.243 577.856C143.926 575.637 144.523 573.717 145.035 572.096H124.683C119.904 572.096 116.107 572.608 113.291 573.632C110.56 574.656 108.598 576.405 107.403 578.88C106.294 581.355 105.739 584.811 105.739 589.248V600.512C105.739 610.667 105.312 619.669 104.459 627.52C103.691 635.371 102.368 642.453 100.491 648.768C98.699 655.083 96.2243 661.056 93.067 666.688C92.299 668.139 91.1043 669.077 89.483 669.504C87.947 670.016 86.4537 669.931 85.003 669.248C83.467 668.565 82.5283 667.456 82.187 665.92C81.8457 664.469 82.059 663.061 82.827 661.696C85.7283 656.576 88.0323 651.157 89.739 645.44C91.4457 639.723 92.683 633.237 93.451 625.984C94.219 618.645 94.603 610.112 94.603 600.384V589.12C94.603 582.293 95.5417 576.875 97.419 572.864C99.3817 568.768 102.539 565.867 106.891 564.16C111.328 562.368 117.216 561.472 124.555 561.472H193.291C194.827 561.472 196.064 562.027 197.003 563.136C197.942 564.16 198.411 565.397 198.411 566.848C198.411 568.213 197.942 569.451 197.003 570.56C196.064 571.584 194.827 572.096 193.291 572.096H158.091C157.494 573.888 156.854 575.893 156.171 578.112C155.488 580.245 154.848 582.165 154.251 583.872H163.339C169.398 583.872 174.091 584.512 177.419 585.792C180.832 587.072 183.222 589.205 184.587 592.192C185.952 595.093 186.635 599.061 186.635 604.096V611.648C186.635 616.597 185.952 620.565 184.587 623.552C183.222 626.453 180.832 628.587 177.419 629.952C174.091 631.232 169.398 631.872 163.339 631.872H158.347V657.728C158.347 663.701 156.939 668.011 154.123 670.656C151.392 673.301 146.486 674.624 139.403 674.624ZM141.835 621.76H162.827C167.606 621.76 170.806 621.163 172.427 619.968C174.048 618.773 174.902 616.213 174.987 612.288H129.547C129.632 616.213 130.486 618.773 132.107 619.968C133.814 621.163 137.056 621.76 141.835 621.76ZM109.579 664.128C108.47 663.019 107.915 661.653 107.915 660.032C107.915 658.325 108.555 656.96 109.835 655.936C112.651 653.717 115.552 650.944 118.539 647.616C121.611 644.288 124.086 641.301 125.963 638.656C126.816 637.461 128.011 636.736 129.547 636.48C131.168 636.224 132.576 636.523 133.771 637.376C135.051 638.315 135.776 639.509 135.947 640.96C136.118 642.411 135.776 643.776 134.923 645.056C132.79 648.299 130.23 651.627 127.243 655.04C124.256 658.368 121.27 661.312 118.283 663.872C117.003 664.981 115.552 665.579 113.931 665.664C112.31 665.835 110.859 665.323 109.579 664.128ZM129.547 602.944H174.987C174.902 599.275 174.006 596.885 172.299 595.776C170.678 594.581 167.52 593.984 162.827 593.984H141.835C137.142 593.984 133.942 594.581 132.235 595.776C130.614 596.885 129.718 599.275 129.547 602.944ZM186.891 664.384C185.099 662.763 183.094 660.843 180.875 658.624C178.742 656.32 176.651 654.016 174.603 651.712C172.64 649.323 170.976 647.147 169.611 645.184C168.758 643.989 168.416 642.667 168.587 641.216C168.843 639.765 169.568 638.613 170.763 637.76C171.958 636.907 173.28 636.565 174.731 636.736C176.267 636.907 177.462 637.589 178.315 638.784C179.68 640.491 181.344 642.453 183.307 644.672C185.27 646.891 187.275 649.024 189.323 651.072C191.456 653.12 193.376 654.827 195.083 656.192C196.278 657.131 196.918 658.411 197.003 660.032C197.174 661.568 196.662 662.933 195.467 664.128C194.272 665.323 192.864 665.92 191.243 665.92C189.622 666.005 188.171 665.493 186.891 664.384ZM255.627 670.4C248.715 670.4 242.87 669.931 238.091 668.992C233.312 668.053 229.43 666.389 226.443 664C223.542 661.525 221.408 658.112 220.043 653.76C218.763 649.408 218.123 643.776 218.123 636.864V593.984C218.123 587.072 218.763 581.44 220.043 577.088C221.408 572.736 223.542 569.365 226.443 566.976C229.43 564.501 233.312 562.795 238.091 561.856C242.87 560.917 248.715 560.448 255.627 560.448H287.627C294.539 560.448 300.384 560.917 305.163 561.856C309.942 562.795 313.782 564.501 316.683 566.976C319.67 569.365 321.846 572.736 323.211 577.088C324.576 581.44 325.259 587.072 325.259 593.984V636.864C325.259 643.776 324.576 649.408 323.211 653.76C321.846 658.112 319.67 661.525 316.683 664C313.782 666.389 309.942 668.053 305.163 668.992C300.384 669.931 294.539 670.4 287.627 670.4H255.627ZM255.627 659.776H287.627C294.027 659.776 299.104 659.221 302.859 658.112C306.699 656.917 309.43 654.699 311.051 651.456C312.672 648.128 313.483 643.264 313.483 636.864V593.984C313.483 587.584 312.672 582.72 311.051 579.392C309.43 576.064 306.699 573.845 302.859 572.736C299.104 571.541 294.027 570.944 287.627 570.944H255.627C249.227 570.944 244.15 571.541 240.395 572.736C236.64 573.845 233.91 576.064 232.203 579.392C230.582 582.72 229.771 587.584 229.771 593.984V636.864C229.771 643.264 230.582 648.128 232.203 651.456C233.91 654.699 236.64 656.917 240.395 658.112C244.15 659.221 249.227 659.776 255.627 659.776ZM246.027 650.816C244.406 651.84 242.742 652.224 241.035 651.968C239.328 651.712 237.963 650.859 236.939 649.408C236.086 648.043 235.83 646.592 236.171 645.056C236.598 643.52 237.408 642.411 238.603 641.728C245.174 638.144 250.763 633.792 255.371 628.672C259.979 623.467 263.051 616.725 264.587 608.448H240.779C239.243 608.448 238.006 607.936 237.067 606.912C236.128 605.888 235.659 604.693 235.659 603.328C235.659 601.877 236.128 600.64 237.067 599.616C238.006 598.592 239.243 598.08 240.779 598.08H265.483V582.336C265.483 580.544 266.038 579.136 267.147 578.112C268.342 577.003 269.75 576.448 271.371 576.448C273.078 576.448 274.486 577.003 275.595 578.112C276.704 579.136 277.259 580.544 277.259 582.336V598.08H302.347C303.968 598.08 305.248 598.592 306.187 599.616C307.126 600.64 307.595 601.877 307.595 603.328C307.595 604.693 307.126 605.888 306.187 606.912C305.248 607.936 303.968 608.448 302.347 608.448H278.411C279.691 612.544 281.654 616.597 284.299 620.608C286.944 624.619 290.102 628.331 293.771 631.744C297.44 635.072 301.323 637.973 305.419 640.448C306.699 641.131 307.467 642.325 307.723 644.032C308.064 645.653 307.851 647.104 307.083 648.384C306.144 649.92 304.779 650.859 302.987 651.2C301.195 651.541 299.574 651.243 298.123 650.304C293.174 647.061 288.395 643.093 283.787 638.4C279.179 633.707 275.382 628.331 272.395 622.272C269.92 627.989 266.464 633.195 262.027 637.888C257.675 642.581 252.342 646.891 246.027 650.816ZM405.771 667.328C399.968 667.328 395.062 665.92 391.051 663.104C387.126 660.288 385.163 655.936 385.163 650.048C385.163 644.757 387.04 640.576 390.795 637.504C394.635 634.347 399.67 632.768 405.899 632.768C407.435 632.768 408.928 632.811 410.379 632.896C411.915 632.981 413.451 633.152 414.987 633.408C414.902 628.885 414.774 623.808 414.603 618.176C414.518 612.459 414.39 606.656 414.219 600.768C409.44 601.024 404.79 601.237 400.267 601.408C395.83 601.579 391.947 601.621 388.619 601.536C386.998 601.536 385.632 600.939 384.523 599.744C383.414 598.549 382.902 597.184 382.987 595.648C383.072 594.027 383.67 592.661 384.779 591.552C385.974 590.443 387.382 589.931 389.003 590.016C392.331 590.101 396.171 590.144 400.523 590.144C404.875 590.059 409.355 589.888 413.963 589.632C413.878 586.048 413.835 582.592 413.835 579.264C413.835 575.851 413.835 572.736 413.835 569.92C413.835 568.299 414.39 566.933 415.499 565.824C416.608 564.715 417.974 564.16 419.595 564.16C421.216 564.16 422.582 564.715 423.691 565.824C424.8 566.933 425.355 568.299 425.355 569.92C425.355 572.992 425.355 576.107 425.355 579.264C425.44 582.421 425.483 585.579 425.483 588.736C429.408 588.395 433.078 588.053 436.491 587.712C439.99 587.285 443.062 586.859 445.707 586.432C447.243 586.091 448.651 586.389 449.931 587.328C451.296 588.267 452.107 589.547 452.363 591.168C452.619 592.704 452.278 594.155 451.339 595.52C450.486 596.8 449.248 597.568 447.627 597.824C444.811 598.165 441.526 598.549 437.771 598.976C434.016 599.317 430.006 599.659 425.739 600C425.91 606.912 426.08 613.525 426.251 619.84C426.422 626.155 426.55 631.573 426.635 636.096C431.328 637.461 435.808 639.211 440.075 641.344C444.427 643.477 448.224 645.739 451.467 648.128C452.747 649.067 453.515 650.347 453.771 651.968C454.112 653.504 453.814 654.912 452.875 656.192C451.936 657.557 450.656 658.368 449.035 658.624C447.414 658.88 445.963 658.539 444.683 657.6C442.464 655.893 439.776 654.229 436.619 652.608C433.547 650.901 430.304 649.365 426.891 648C426.635 660.885 419.595 667.328 405.771 667.328ZM362.763 667.456C361.142 667.797 359.648 667.499 358.283 666.56C357.003 665.621 356.235 664.384 355.979 662.848C355.467 660.032 355.083 656.235 354.827 651.456C354.571 646.592 354.4 641.173 354.315 635.2C354.23 629.141 354.23 622.869 354.315 616.384C354.486 609.899 354.742 603.584 355.083 597.44C355.424 591.296 355.851 585.707 356.363 580.672C356.96 575.637 357.643 571.584 358.411 568.512C358.838 566.976 359.691 565.781 360.971 564.928C362.336 564.075 363.787 563.861 365.323 564.288C366.944 564.629 368.139 565.483 368.907 566.848C369.76 568.213 370.016 569.664 369.675 571.2C368.907 574.443 368.224 578.496 367.627 583.36C367.03 588.139 366.56 593.387 366.219 599.104C365.878 604.821 365.622 610.667 365.451 616.64C365.366 622.613 365.366 628.416 365.451 634.048C365.536 639.68 365.75 644.843 366.091 649.536C366.432 654.144 366.859 657.899 367.371 660.8C367.627 662.336 367.286 663.744 366.347 665.024C365.494 666.389 364.299 667.2 362.763 667.456ZM405.771 656.576C409.27 656.576 411.702 655.808 413.067 654.272C414.518 652.651 415.243 650.304 415.243 647.232V644.416C411.915 643.648 408.758 643.264 405.771 643.264C402.358 643.264 399.926 643.947 398.475 645.312C397.024 646.592 396.299 648.171 396.299 650.048C396.299 651.925 397.024 653.504 398.475 654.784C399.926 655.979 402.358 656.576 405.771 656.576ZM525.323 670.784C518.496 670.784 512.864 670.357 508.427 669.504C503.99 668.651 500.491 667.072 497.931 664.768C495.371 662.464 493.536 659.264 492.427 655.168C491.403 650.987 490.891 645.611 490.891 639.04V606.144C490.891 598.379 491.616 592.277 493.067 587.84C494.603 583.403 497.248 580.203 501.003 578.24C504.843 576.277 510.176 575.083 517.003 574.656C517.6 573.205 518.283 571.541 519.051 569.664C519.819 567.787 520.544 565.952 521.227 564.16C521.995 562.368 522.592 560.875 523.019 559.68C523.702 557.973 524.811 556.736 526.347 555.968C527.883 555.2 529.675 555.157 531.723 555.84C533.43 556.352 534.624 557.419 535.307 559.04C536.075 560.576 536.118 562.155 535.435 563.776C534.838 565.141 534.07 566.848 533.131 568.896C532.278 570.859 531.424 572.693 530.571 574.4H540.811C547.638 574.4 553.27 574.827 557.707 575.68C562.144 576.533 565.643 578.112 568.203 580.416C570.763 582.72 572.555 585.963 573.579 590.144C574.688 594.24 575.243 599.573 575.243 606.144V639.04C575.243 645.611 574.688 650.987 573.579 655.168C572.555 659.264 570.763 662.464 568.203 664.768C565.643 667.072 562.144 668.651 557.707 669.504C553.27 670.357 547.638 670.784 540.811 670.784H525.323ZM502.795 631.104H563.211V613.44H502.795V631.104ZM525.323 659.776H540.811C546.87 659.776 551.478 659.392 554.635 658.624C557.878 657.856 560.096 656.192 561.291 653.632C562.486 651.072 563.126 647.189 563.211 641.984H502.795C502.966 647.189 503.648 651.072 504.843 653.632C506.038 656.192 508.214 657.856 511.371 658.624C514.614 659.392 519.264 659.776 525.323 659.776ZM502.795 602.688H563.211C563.126 597.568 562.443 593.771 561.163 591.296C559.968 588.821 557.792 587.2 554.635 586.432C551.478 585.664 546.87 585.28 540.811 585.28H525.323C519.35 585.28 514.742 585.664 511.499 586.432C508.342 587.2 506.123 588.821 504.843 591.296C503.648 593.771 502.966 597.568 502.795 602.688ZM665.611 672.576C661.174 672.576 658.742 670.613 658.315 666.688C658.23 664.811 658.827 663.317 660.107 662.208C661.387 661.013 663.008 660.373 664.971 660.288C669.323 660.203 672.694 659.904 675.083 659.392C677.472 658.795 679.264 657.557 680.459 655.68C681.654 653.803 682.592 650.901 683.275 646.976C683.702 644.501 684.086 641.856 684.427 639.04C684.854 636.224 685.195 633.237 685.451 630.08C685.707 627.008 685.579 624.704 685.067 623.168C684.555 621.547 683.403 620.48 681.611 619.968C679.904 619.371 677.302 619.072 673.803 619.072H660.875C660.278 626.923 658.443 634.304 655.371 641.216C652.299 648.128 647.904 654.229 642.187 659.52C636.555 664.811 629.472 669.035 620.939 672.192C619.318 672.789 617.696 672.832 616.075 672.32C614.539 671.808 613.387 670.699 612.619 668.992C612.022 667.541 612.064 666.091 612.747 664.64C613.515 663.189 614.71 662.165 616.331 661.568C623.328 658.923 629.131 655.424 633.739 651.072C638.432 646.72 642.059 641.813 644.619 636.352C647.179 630.805 648.715 625.045 649.227 619.072H633.355C631.734 619.072 630.326 618.517 629.131 617.408C628.022 616.213 627.467 614.805 627.467 613.184C627.467 611.563 628.022 610.197 629.131 609.088C630.326 607.979 631.734 607.424 633.355 607.424H674.443C680.843 607.424 685.75 608.107 689.163 609.472C692.662 610.837 695.008 613.099 696.203 616.256C697.483 619.328 697.91 623.552 697.483 628.928C697.227 632.768 696.886 636.352 696.459 639.68C696.118 642.923 695.691 646.123 695.179 649.28C694.155 655.424 692.534 660.203 690.315 663.616C688.182 666.944 685.152 669.248 681.227 670.528C677.302 671.893 672.096 672.576 665.611 672.576ZM713.483 616.256C708.875 613.184 704.31 609.557 699.787 605.376C695.264 601.195 691.126 596.885 687.371 592.448C683.616 588.011 680.544 583.829 678.155 579.904C676.875 577.685 675.638 576.021 674.443 574.912C673.248 573.717 671.798 572.907 670.091 572.48C668.47 572.053 666.208 571.84 663.307 571.84H655.499C653.878 571.84 652.47 571.285 651.275 570.176C650.166 568.981 649.611 567.573 649.611 565.952C649.611 564.331 650.123 562.965 651.147 561.856C652.171 560.747 653.494 560.192 655.115 560.192H663.307C668.427 560.192 672.438 560.576 675.339 561.344C678.326 562.112 680.8 563.52 682.763 565.568C684.726 567.531 686.816 570.389 689.035 574.144C691.339 577.813 694.155 581.568 697.483 585.408C700.896 589.248 704.651 592.875 708.747 596.288C712.843 599.701 717.024 602.731 721.291 605.376C722.912 606.315 723.936 607.68 724.363 609.472C724.79 611.264 724.448 612.928 723.339 614.464C722.23 616.085 720.694 617.067 718.731 617.408C716.854 617.749 715.104 617.365 713.483 616.256ZM613.643 617.408C612.107 618.432 610.4 618.944 608.523 618.944C606.731 618.859 605.238 618.091 604.043 616.64C602.934 615.189 602.507 613.611 602.763 611.904C603.104 610.197 604.043 608.832 605.579 607.808C608.566 605.845 611.638 603.456 614.795 600.64C617.952 597.739 621.024 594.667 624.011 591.424C626.998 588.181 629.728 584.939 632.203 581.696C634.678 578.453 636.768 575.424 638.475 572.608C639.414 571.157 640.694 570.219 642.315 569.792C643.936 569.365 645.472 569.621 646.923 570.56C648.374 571.413 649.312 572.651 649.739 574.272C650.251 575.893 650.038 577.429 649.099 578.88C646.454 583.403 643.126 588.053 639.115 592.832C635.19 597.611 631.008 602.133 626.571 606.4C622.134 610.667 617.824 614.336 613.643 617.408ZM757.771 664C756.235 664.341 754.827 664.043 753.547 663.104C752.267 662.165 751.456 660.928 751.115 659.392C750.347 655.467 749.792 650.688 749.451 645.056C749.11 639.339 748.939 633.195 748.939 626.624C748.939 620.053 749.11 613.44 749.451 606.784C749.792 600.128 750.304 593.856 750.987 587.968C751.67 582.08 752.48 577.003 753.419 572.736C753.76 571.115 754.614 569.877 755.979 569.024C757.344 568.171 758.795 567.957 760.331 568.384C761.952 568.725 763.147 569.579 763.915 570.944C764.768 572.309 765.024 573.803 764.683 575.424C763.574 579.776 762.678 584.725 761.995 590.272C761.312 595.819 760.8 601.664 760.459 607.808C760.203 613.952 760.075 620.053 760.075 626.112C760.16 632.085 760.374 637.803 760.715 643.264C761.142 648.64 761.739 653.333 762.507 657.344C762.763 658.88 762.422 660.331 761.483 661.696C760.63 662.976 759.392 663.744 757.771 664ZM810.635 656.576C799.627 656.576 791.478 654.528 786.187 650.432C780.982 646.336 778.038 640.789 777.355 633.792C777.184 632.171 777.568 630.763 778.507 629.568C779.531 628.288 780.854 627.605 782.475 627.52C784.096 627.349 785.504 627.776 786.699 628.8C787.979 629.739 788.704 631.019 788.875 632.64C789.216 636.907 791.136 640.107 794.635 642.24C798.134 644.373 803.51 645.44 810.763 645.44C813.75 645.44 817.376 645.227 821.643 644.8C825.91 644.288 830.219 643.477 834.571 642.368C836.107 641.941 837.515 642.197 838.795 643.136C840.16 644.075 841.014 645.312 841.355 646.848C841.782 648.469 841.526 649.92 840.587 651.2C839.734 652.48 838.496 653.333 836.875 653.76C832.438 654.869 827.958 655.637 823.435 656.064C818.998 656.405 814.731 656.576 810.635 656.576ZM786.315 593.984C784.694 594.325 783.2 594.069 781.835 593.216C780.555 592.277 779.744 590.997 779.403 589.376C779.147 587.84 779.446 586.432 780.299 585.152C781.238 583.787 782.475 582.933 784.011 582.592C787.254 581.909 790.966 581.44 795.147 581.184C799.414 580.843 803.766 580.672 808.203 580.672C812.726 580.587 817.078 580.672 821.259 580.928C825.44 581.184 829.195 581.611 832.523 582.208C834.059 582.549 835.254 583.36 836.107 584.64C837.046 585.92 837.387 587.371 837.131 588.992C836.79 590.528 835.979 591.765 834.699 592.704C833.419 593.643 831.968 593.941 830.347 593.6C815.67 590.955 800.992 591.083 786.315 593.984ZM944.139 670.912C942.603 671.424 941.11 671.339 939.659 670.656C938.208 669.973 937.227 668.864 936.715 667.328C936.203 665.877 936.288 664.427 936.971 662.976C937.654 661.525 938.763 660.544 940.299 660.032C947.979 657.301 953.526 653.589 956.939 648.896C960.438 644.203 962.187 639.253 962.187 634.048C962.187 628.757 960.523 624.107 957.195 620.096C953.867 616.085 948.79 613.397 941.963 612.032C940.683 619.029 938.635 625.643 935.819 631.872C933.088 638.016 929.846 643.477 926.091 648.256C926.518 648.939 926.944 649.664 927.371 650.432C927.798 651.115 928.224 651.797 928.651 652.48C929.504 653.76 929.76 655.168 929.419 656.704C929.078 658.24 928.224 659.477 926.859 660.416C925.494 661.269 924.043 661.568 922.507 661.312C920.971 660.971 919.776 660.117 918.923 658.752C918.752 658.411 918.539 658.112 918.283 657.856C918.112 657.6 917.942 657.301 917.771 656.96C914.102 660.117 910.219 662.592 906.123 664.384C902.027 666.261 897.846 667.2 893.579 667.2C888.288 667.2 883.808 665.707 880.139 662.72C876.47 659.648 874.635 654.613 874.635 647.616C874.635 641.131 875.958 635.2 878.603 629.824C881.248 624.448 884.875 619.755 889.483 615.744C894.091 611.648 899.254 608.32 904.971 605.76C905.056 603.029 905.142 600.256 905.227 597.44C905.398 594.539 905.654 591.595 905.995 588.608C897.376 589.12 889.824 589.248 883.339 588.992C881.718 588.907 880.352 588.309 879.243 587.2C878.219 586.005 877.75 584.597 877.835 582.976C877.92 581.355 878.518 580.032 879.627 579.008C880.822 577.899 882.23 577.387 883.851 577.472C890.763 577.728 898.656 577.6 907.531 577.088C907.958 574.869 908.342 572.693 908.683 570.56C909.11 568.341 909.579 566.08 910.091 563.776C910.432 562.24 911.243 561.045 912.523 560.192C913.888 559.253 915.382 558.997 917.003 559.424C918.539 559.765 919.734 560.619 920.587 561.984C921.526 563.264 921.782 564.672 921.355 566.208C921.014 567.915 920.672 569.621 920.331 571.328C920.075 572.949 919.776 574.613 919.435 576.32C923.531 575.893 927.456 575.467 931.211 575.04C934.966 574.528 938.422 574.016 941.579 573.504C943.2 573.163 944.651 573.461 945.931 574.4C947.211 575.339 948.022 576.576 948.363 578.112C948.619 579.733 948.278 581.184 947.339 582.464C946.486 583.744 945.248 584.555 943.627 584.896C939.958 585.493 935.904 586.048 931.467 586.56C927.03 586.987 922.464 587.413 917.771 587.84C917.43 590.229 917.174 592.619 917.003 595.008C916.918 597.397 916.79 599.701 916.619 601.92C921.91 600.725 927.115 600.128 932.235 600.128C941.024 600.128 948.491 601.621 954.635 604.608C960.779 607.509 965.472 611.52 968.715 616.64C972.043 621.675 973.707 627.435 973.707 633.92C973.707 638.699 972.683 643.477 970.635 648.256C968.587 652.949 965.387 657.301 961.035 661.312C956.683 665.237 951.051 668.437 944.139 670.912ZM893.579 655.808C896.822 655.808 900.064 655.04 903.307 653.504C906.55 651.883 909.622 649.664 912.523 646.848C908.768 637.973 906.422 628.16 905.483 617.408C899.51 620.565 894.774 624.789 891.275 630.08C887.862 635.285 886.155 641.173 886.155 647.744C886.155 653.12 888.63 655.808 893.579 655.808ZM920.971 636.608C923.36 632.939 925.451 628.971 927.243 624.704C929.035 620.352 930.4 615.787 931.339 611.008C926.134 611.093 921.27 611.733 916.747 612.928C917.259 621.547 918.667 629.44 920.971 636.608ZM1055.88 667.072C1048.29 667.072 1042.44 665.536 1038.35 662.464C1034.25 659.392 1032.2 655.125 1032.2 649.664C1032.2 644.288 1034.17 640.107 1038.09 637.12C1042.02 634.048 1046.97 632.853 1052.94 633.536C1057.38 634.048 1060.83 635.371 1063.31 637.504C1065.78 639.637 1067.36 642.24 1068.04 645.312C1068.73 648.299 1068.6 651.413 1067.66 654.656C1071.16 653.461 1074.27 651.371 1077 648.384C1079.73 645.312 1081.1 640.917 1081.1 635.2C1081.1 631.189 1079.99 627.776 1077.77 624.96C1075.64 622.144 1072.65 620.096 1068.81 618.816C1064.97 617.536 1060.62 617.152 1055.75 617.664C1050.89 618.176 1045.73 619.712 1040.27 622.272C1034.81 624.747 1029.39 628.416 1024.01 633.28C1022.9 634.304 1021.54 634.731 1019.91 634.56C1018.29 634.304 1016.97 633.621 1015.95 632.512C1015.01 631.317 1014.54 629.909 1014.54 628.288C1014.62 626.667 1015.31 625.429 1016.59 624.576C1022.05 620.395 1027.42 616.085 1032.71 611.648C1038.09 607.125 1043.17 602.688 1047.95 598.336C1052.73 593.899 1057.03 589.803 1060.87 586.048C1064.03 582.976 1065.1 580.587 1064.07 578.88C1063.05 577.088 1060.62 576.405 1056.78 576.832C1054.9 577.003 1052.68 577.259 1050.12 577.6C1047.56 577.941 1044.92 578.283 1042.19 578.624C1039.54 578.88 1037.15 579.179 1035.02 579.52C1033.48 579.776 1032.07 579.435 1030.79 578.496C1029.51 577.472 1028.75 576.192 1028.49 574.656C1028.32 573.035 1028.7 571.627 1029.64 570.432C1030.58 569.152 1031.86 568.384 1033.48 568.128C1035.02 567.872 1037.15 567.659 1039.88 567.488C1042.61 567.232 1045.43 566.976 1048.33 566.72C1051.32 566.464 1053.88 566.251 1056.01 566.08C1061.47 565.653 1065.87 566.293 1069.19 568C1072.61 569.621 1074.87 571.883 1075.98 574.784C1077.17 577.685 1077.17 580.843 1075.98 584.256C1074.78 587.669 1072.31 590.997 1068.55 594.24C1066.34 596.117 1063.56 598.507 1060.23 601.408C1056.99 604.224 1053.75 606.955 1050.51 609.6C1055.63 607.893 1060.66 607.253 1065.61 607.68C1070.65 608.021 1075.17 609.301 1079.18 611.52C1083.27 613.739 1086.52 616.853 1088.91 620.864C1091.38 624.789 1092.62 629.568 1092.62 635.2C1092.62 642.709 1091 648.811 1087.75 653.504C1084.6 658.197 1080.25 661.653 1074.7 663.872C1069.24 666.005 1062.97 667.072 1055.88 667.072ZM1056.14 656.192C1057.42 652.608 1057.59 649.749 1056.65 647.616C1055.8 645.483 1054.13 644.331 1051.66 644.16C1049.27 643.904 1047.31 644.245 1045.77 645.184C1044.32 646.037 1043.59 647.659 1043.59 650.048C1043.59 652.011 1044.53 653.547 1046.41 654.656C1048.29 655.68 1051.53 656.192 1056.14 656.192ZM1148.68 671.424C1145.27 671.424 1142.11 670.571 1139.21 668.864C1136.4 667.157 1134.13 664.896 1132.43 662.08C1130.72 659.179 1129.87 656.021 1129.87 652.608C1129.87 649.109 1130.72 645.952 1132.43 643.136C1134.13 640.235 1136.4 637.973 1139.21 636.352C1142.11 634.645 1145.27 633.792 1148.68 633.792C1152.18 633.792 1155.34 634.645 1158.16 636.352C1160.97 637.973 1163.23 640.235 1164.94 643.136C1166.65 645.952 1167.5 649.109 1167.5 652.608C1167.5 656.021 1166.65 659.179 1164.94 662.08C1163.23 664.896 1160.97 667.157 1158.16 668.864C1155.34 670.571 1152.18 671.424 1148.68 671.424ZM1148.68 664C1151.84 664 1154.53 662.891 1156.75 660.672C1158.97 658.453 1160.08 655.765 1160.08 652.608C1160.08 649.451 1158.97 646.763 1156.75 644.544C1154.53 642.325 1151.84 641.216 1148.68 641.216C1145.53 641.216 1142.84 642.368 1140.62 644.672C1138.4 646.891 1137.29 649.536 1137.29 652.608C1137.29 655.68 1138.4 658.368 1140.62 660.672C1142.84 662.891 1145.53 664 1148.68 664ZM232.552 864.704C231.443 863.595 230.931 862.315 231.016 860.864C231.187 859.499 231.827 858.347 232.936 857.408C239.507 851.776 244.883 844.352 249.064 835.136C253.331 825.92 255.464 814.784 255.464 801.728V791.744C255.464 790.123 255.976 788.885 257 788.032C258.024 787.093 259.261 786.624 260.712 786.624C262.163 786.624 263.4 787.093 264.424 788.032C265.448 788.885 265.96 790.123 265.96 791.744V801.728C265.96 810.517 267.069 818.368 269.288 825.28C271.592 832.107 274.707 838.123 278.632 843.328C282.557 848.448 286.952 852.885 291.816 856.64C293.096 857.493 293.821 858.731 293.992 860.352C294.163 861.973 293.651 863.381 292.456 864.576C291.261 865.856 289.853 866.453 288.232 866.368C286.611 866.283 285.16 865.685 283.88 864.576C278.675 859.968 274.109 854.763 270.184 848.96C266.344 843.157 263.315 836.8 261.096 829.888C257.256 843.797 250.472 855.36 240.744 864.576C239.635 865.685 238.269 866.283 236.648 866.368C235.112 866.453 233.747 865.899 232.552 864.704ZM214.248 867.136C212.712 867.136 211.432 866.624 210.408 865.6C209.384 864.661 208.829 863.381 208.744 861.76C208.659 860.309 209.085 858.987 210.024 857.792C211.048 856.683 212.285 856.085 213.736 856C215.955 855.744 217.619 855.488 218.728 855.232C219.837 854.891 220.563 854.251 220.904 853.312C221.331 852.373 221.544 850.923 221.544 848.96V818.112H178.664C177.213 818.112 176.019 817.643 175.08 816.704C174.227 815.68 173.8 814.485 173.8 813.12C173.8 811.755 174.227 810.603 175.08 809.664C176.019 808.64 177.213 808.128 178.664 808.128H237.8C239.251 808.128 240.403 808.64 241.256 809.664C242.195 810.603 242.664 811.755 242.664 813.12C242.664 814.485 242.195 815.68 241.256 816.704C240.403 817.643 239.251 818.112 237.8 818.112H232.296V851.008C232.296 856.64 230.931 860.736 228.2 863.296C225.469 865.856 220.819 867.136 214.248 867.136ZM216.424 807.232C214.803 807.232 213.48 806.805 212.456 805.952C211.517 805.013 210.963 803.776 210.792 802.24C210.707 800.704 211.176 799.424 212.2 798.4C213.224 797.376 214.419 796.821 215.784 796.736C218.515 796.565 220.136 796.181 220.648 795.584C221.245 794.901 221.544 793.365 221.544 790.976V764.352H179.56C178.109 764.352 176.915 763.883 175.976 762.944C175.123 761.92 174.696 760.725 174.696 759.36C174.696 757.995 175.123 756.843 175.976 755.904C176.915 754.965 178.109 754.496 179.56 754.496H237.288C238.739 754.496 239.891 754.965 240.744 755.904C241.683 756.843 242.152 757.995 242.152 759.36C242.152 760.725 241.683 761.92 240.744 762.944C239.891 763.883 238.739 764.352 237.288 764.352H232.296V793.408C232.296 798.187 231.059 801.685 228.584 803.904C226.195 806.123 222.141 807.232 216.424 807.232ZM273.128 805.312C271.592 804.629 270.568 803.563 270.056 802.112C269.629 800.661 269.8 799.339 270.568 798.144C271.592 796.437 272.573 794.816 273.512 793.28C274.451 791.659 275.219 790.165 275.816 788.8C277.011 786.411 277.267 784.704 276.584 783.68C275.987 782.571 274.408 782.016 271.848 782.016H253.16C251.965 784.747 250.685 787.435 249.32 790.08C247.955 792.725 246.547 795.285 245.096 797.76C244.243 799.125 243.091 800.064 241.64 800.576C240.275 801.003 238.867 800.875 237.416 800.192C236.051 799.509 235.112 798.443 234.6 796.992C234.173 795.456 234.387 794.091 235.24 792.896C237.544 789.397 239.763 785.344 241.896 780.736C244.115 776.128 246.035 771.392 247.656 766.528C249.277 761.579 250.472 757.056 251.24 752.96C251.581 751.339 252.307 750.144 253.416 749.376C254.611 748.523 256.019 748.267 257.64 748.608C259.176 748.864 260.371 749.547 261.224 750.656C262.163 751.68 262.419 753.045 261.992 754.752C261.48 757.483 260.797 760.299 259.944 763.2C259.176 766.016 258.28 768.832 257.256 771.648H275.304C280.936 771.648 284.904 773.269 287.208 776.512C289.597 779.669 289.597 783.808 287.208 788.928C286.184 791.061 285.117 793.237 284.008 795.456C282.899 797.589 281.619 799.893 280.168 802.368C279.485 803.648 278.504 804.629 277.224 805.312C275.944 805.909 274.579 805.909 273.128 805.312ZM197.992 852.8C192.104 852.8 187.965 851.776 185.576 849.728C183.187 847.68 181.992 843.883 181.992 838.336C181.992 832.789 183.187 828.992 185.576 826.944C187.965 824.811 192.104 823.744 197.992 823.744C203.795 823.744 207.891 824.811 210.28 826.944C212.755 828.992 213.992 832.789 213.992 838.336C213.992 843.883 212.755 847.68 210.28 849.728C207.891 851.776 203.795 852.8 197.992 852.8ZM198.12 797.504C192.317 797.504 188.221 796.523 185.832 794.56C183.443 792.512 182.248 788.885 182.248 783.68C182.248 778.389 183.443 774.763 185.832 772.8C188.221 770.752 192.317 769.728 198.12 769.728C203.923 769.728 207.976 770.752 210.28 772.8C212.669 774.763 213.864 778.389 213.864 783.68C213.864 788.885 212.669 792.512 210.28 794.56C207.976 796.523 203.923 797.504 198.12 797.504ZM197.992 843.84C200.637 843.84 202.301 843.499 202.984 842.816C203.667 842.133 204.008 840.64 204.008 838.336C204.008 835.947 203.667 834.411 202.984 833.728C202.301 833.045 200.637 832.704 197.992 832.704C195.347 832.704 193.64 833.045 192.872 833.728C192.189 834.411 191.848 835.947 191.848 838.336C191.848 840.64 192.189 842.133 192.872 842.816C193.64 843.499 195.347 843.84 197.992 843.84ZM198.12 788.8C200.765 788.8 202.429 788.459 203.112 787.776C203.795 787.093 204.136 785.728 204.136 783.68C204.136 781.547 203.795 780.139 203.112 779.456C202.429 778.773 200.765 778.432 198.12 778.432C195.475 778.432 193.811 778.773 193.128 779.456C192.445 780.139 192.104 781.547 192.104 783.68C192.104 785.728 192.445 787.093 193.128 787.776C193.811 788.459 195.475 788.8 198.12 788.8ZM309.48 823.872C308.115 823.872 307.005 823.403 306.152 822.464C305.384 821.525 305 820.416 305 819.136C305 817.941 305.384 816.875 306.152 815.936C307.005 814.997 308.115 814.528 309.48 814.528H335.976V806.72H316.904C315.539 806.72 314.472 806.251 313.704 805.312C312.936 804.373 312.552 803.307 312.552 802.112C312.552 800.917 312.936 799.893 313.704 799.04C314.472 798.101 315.539 797.632 316.904 797.632H335.976V790.336H318.696C317.587 790.336 316.605 789.995 315.752 789.312C314.984 788.544 314.515 787.648 314.344 786.624C313.917 786.965 313.405 787.264 312.808 787.52C312.296 787.691 311.699 787.776 311.016 787.776C309.651 787.776 308.456 787.307 307.432 786.368C306.493 785.429 306.024 784.192 306.024 782.656V777.792C306.024 771.989 307.304 767.936 309.864 765.632C312.509 763.243 317.16 762.048 323.816 762.048H335.72V753.6C335.72 751.893 336.275 750.571 337.384 749.632C338.493 748.608 339.816 748.096 341.352 748.096C342.973 748.096 344.339 748.608 345.448 749.632C346.557 750.571 347.112 751.893 347.112 753.6V762.048H358.504C365.075 762.048 369.683 763.243 372.328 765.632C374.973 767.936 376.296 771.989 376.296 777.792V782.656C376.296 784.192 375.784 785.429 374.76 786.368C373.821 787.221 372.627 787.648 371.176 787.648C370.152 787.648 369.171 787.392 368.232 786.88C367.976 787.819 367.464 788.629 366.696 789.312C366.013 789.995 365.075 790.336 363.88 790.336H346.856V797.632H365.416C366.696 797.632 367.72 798.101 368.488 799.04C369.256 799.893 369.64 800.917 369.64 802.112C369.64 803.307 369.256 804.373 368.488 805.312C367.72 806.251 366.696 806.72 365.416 806.72H346.856V814.528H373.224C374.589 814.528 375.656 814.997 376.424 815.936C377.277 816.875 377.704 817.941 377.704 819.136C377.704 820.416 377.277 821.525 376.424 822.464C375.656 823.403 374.589 823.872 373.224 823.872H309.48ZM337 865.216C331.795 865.216 327.741 864.661 324.84 863.552C321.939 862.528 319.933 860.736 318.824 858.176C317.715 855.701 317.16 852.288 317.16 847.936C317.16 843.499 317.715 840.043 318.824 837.568C319.933 835.008 321.939 833.216 324.84 832.192C327.741 831.083 331.795 830.528 337 830.528H348.392C353.683 830.528 357.736 831.083 360.552 832.192C363.453 833.216 365.459 835.008 366.568 837.568C367.677 840.043 368.232 843.499 368.232 847.936C368.232 852.288 367.677 855.701 366.568 858.176C365.459 860.736 363.453 862.528 360.552 863.552C357.736 864.661 353.683 865.216 348.392 865.216H337ZM395.88 866.24C394.259 866.24 392.893 865.685 391.784 864.576C390.675 863.552 390.077 862.229 389.992 860.608C389.907 858.987 390.333 857.579 391.272 856.384C392.211 855.275 393.533 854.677 395.24 854.592C398.397 854.421 400.744 854.123 402.28 853.696C403.816 853.184 404.84 852.288 405.352 851.008C405.864 849.728 406.12 847.808 406.12 845.248V753.856C406.12 752.235 406.632 750.955 407.656 750.016C408.765 748.992 410.088 748.48 411.624 748.48C413.075 748.48 414.312 748.992 415.336 750.016C416.445 750.955 417 752.235 417 753.856V847.04C417 851.904 416.403 855.701 415.208 858.432C414.013 861.248 411.88 863.253 408.808 864.448C405.736 865.643 401.427 866.24 395.88 866.24ZM388.712 836.416C387.176 836.416 385.853 835.904 384.744 834.88C383.72 833.856 383.208 832.533 383.208 830.912V762.944C383.208 761.323 383.72 760.043 384.744 759.104C385.853 758.08 387.176 757.568 388.712 757.568C390.163 757.568 391.4 758.08 392.424 759.104C393.533 760.043 394.088 761.323 394.088 762.944V830.912C394.088 832.533 393.533 833.856 392.424 834.88C391.4 835.904 390.163 836.416 388.712 836.416ZM338.152 855.36H347.368C351.549 855.36 354.237 854.848 355.432 853.824C356.627 852.8 357.224 850.795 357.224 847.808C357.224 844.821 356.627 842.816 355.432 841.792C354.237 840.768 351.549 840.256 347.368 840.256H338.152C334.056 840.256 331.411 840.768 330.216 841.792C329.107 842.816 328.552 844.821 328.552 847.808C328.552 850.795 329.107 852.8 330.216 853.824C331.411 854.848 334.056 855.36 338.152 855.36ZM316.136 781.76C316.904 781.163 317.757 780.864 318.696 780.864H335.976V777.408C335.976 775.872 336.488 774.635 337.512 773.696C338.621 772.672 339.901 772.16 341.352 772.16C342.888 772.16 344.168 772.672 345.192 773.696C346.301 774.635 346.856 775.872 346.856 777.408V780.864H363.88C364.733 780.864 365.501 781.077 366.184 781.504V779.072C366.184 775.915 365.544 773.824 364.264 772.8C362.984 771.776 360.595 771.264 357.096 771.264H325.096C321.597 771.264 319.208 771.776 317.928 772.8C316.733 773.824 316.136 775.915 316.136 779.072V781.76ZM490.984 860.48C489.789 859.371 489.149 857.963 489.064 856.256C489.064 854.549 489.619 853.141 490.728 852.032C494.824 848.107 498.451 843.157 501.608 837.184C504.851 831.211 507.368 824.512 509.16 817.088C510.952 809.579 511.848 801.728 511.848 793.536C511.848 786.453 510.739 781.205 508.52 777.792C506.387 774.379 502.845 772.672 497.896 772.672C494.483 772.672 491.155 774.293 487.912 777.536C484.669 780.779 482.152 785.344 480.36 791.232C478.653 797.12 478.184 804.032 478.952 811.968C479.123 813.419 478.696 814.699 477.672 815.808C476.733 816.917 475.539 817.557 474.088 817.728C472.723 817.813 471.443 817.429 470.248 816.576C469.053 815.637 468.371 814.485 468.2 813.12C467.603 809.024 467.219 804.373 467.048 799.168C466.963 793.963 466.963 788.715 467.048 783.424C467.219 778.048 467.432 773.013 467.688 768.32C468.029 763.627 468.371 759.744 468.712 756.672C468.883 755.136 469.565 753.899 470.76 752.96C472.04 752.021 473.448 751.637 474.984 751.808C476.52 751.893 477.757 752.576 478.696 753.856C479.72 755.051 480.104 756.416 479.848 757.952C479.592 760.085 479.293 762.731 478.952 765.888C478.611 769.045 478.355 772.245 478.184 775.488C480.659 771.051 483.645 767.552 487.144 764.992C490.728 762.347 494.483 761.024 498.408 761.024C506.515 761.024 512.701 763.797 516.968 769.344C521.32 774.805 523.496 782.869 523.496 793.536C523.496 802.155 522.6 810.56 520.808 818.752C519.016 826.944 516.328 834.581 512.744 841.664C509.16 848.661 504.723 854.848 499.432 860.224C498.323 861.333 496.915 861.931 495.208 862.016C493.587 862.101 492.179 861.589 490.984 860.48ZM591.464 849.728C590.099 850.581 588.605 850.837 586.984 850.496C585.448 850.069 584.211 849.173 583.272 847.808C582.419 846.443 582.163 844.949 582.504 843.328C582.931 841.707 583.827 840.469 585.192 839.616C591.507 836.032 597.864 831.552 604.264 826.176C610.749 820.715 616.893 814.827 622.696 808.512C628.499 802.197 633.661 795.797 638.184 789.312C642.792 782.827 646.419 776.64 649.064 770.752C649.747 769.301 650.856 768.277 652.392 767.68C653.928 767.083 655.421 767.125 656.872 767.808C658.408 768.405 659.475 769.515 660.072 771.136C660.669 772.672 660.627 774.165 659.944 775.616C657.128 781.845 653.331 788.373 648.552 795.2C643.859 801.941 638.44 808.64 632.296 815.296C626.237 821.952 619.709 828.224 612.712 834.112C605.8 840 598.717 845.205 591.464 849.728ZM715.752 814.144C714.131 814.144 712.723 813.589 711.528 812.48C710.419 811.285 709.864 809.877 709.864 808.256C709.864 806.549 710.419 805.141 711.528 804.032C712.723 802.923 714.131 802.368 715.752 802.368H795.496C797.117 802.368 798.483 802.923 799.592 804.032C800.787 805.141 801.384 806.549 801.384 808.256C801.384 809.877 800.787 811.285 799.592 812.48C798.483 813.589 797.117 814.144 795.496 814.144H715.752ZM877.8 858.816C876.179 858.816 874.771 858.219 873.576 857.024C872.467 855.829 871.912 854.421 871.912 852.8V764.48C871.912 762.859 872.467 761.493 873.576 760.384C874.771 759.189 876.179 758.592 877.8 758.592C879.507 758.592 880.915 759.189 882.024 760.384C883.219 761.493 883.816 762.859 883.816 764.48V852.8C883.816 854.421 883.219 855.829 882.024 857.024C880.915 858.219 879.507 858.816 877.8 858.816ZM915.688 821.952C913.299 820.075 910.44 818.027 907.112 815.808C903.869 813.589 900.541 811.413 897.128 809.28C893.715 807.061 890.515 805.099 887.528 803.392C886.163 802.624 885.224 801.472 884.712 799.936C884.2 798.4 884.285 796.907 884.968 795.456C885.736 794.005 886.888 793.067 888.424 792.64C890.045 792.128 891.581 792.213 893.032 792.896C896.445 794.603 899.987 796.608 903.656 798.912C907.411 801.131 910.995 803.435 914.408 805.824C917.907 808.213 920.936 810.475 923.496 812.608C924.776 813.717 925.501 815.125 925.672 816.832C925.843 818.453 925.373 819.904 924.264 821.184C923.155 822.464 921.789 823.189 920.168 823.36C918.547 823.445 917.053 822.976 915.688 821.952Z" fill="#473C2B"/>
<path d="M1070.41 753.33L1019.95 738.213C1019.2 737.987 1018.4 737.94 1017.63 738.076C1016.85 738.212 1016.12 738.527 1015.49 738.996C1014.86 739.464 1014.35 740.074 1013.99 740.776C1013.64 741.478 1013.45 742.252 1013.45 743.038V811.23C1008.29 806.614 1001.69 803.909 994.767 803.567C987.843 803.226 981.011 805.268 975.413 809.352C969.816 813.437 965.792 819.317 964.013 826.009C962.235 832.701 962.81 839.8 965.642 846.119C968.475 852.439 973.393 857.596 979.576 860.728C985.758 863.861 992.83 864.779 999.608 863.33C1006.39 861.881 1012.46 858.152 1016.82 852.767C1021.18 847.381 1023.55 840.666 1023.55 833.742V780.044L1067.5 793.215C1068.26 793.441 1069.05 793.487 1069.83 793.351C1070.6 793.216 1071.33 792.901 1071.97 792.432C1072.6 791.963 1073.11 791.354 1073.46 790.652C1073.82 789.95 1074 789.175 1074 788.39V758.155C1074 757.072 1073.65 756.017 1073 755.148C1072.35 754.279 1071.44 753.642 1070.41 753.33Z" fill="#473C2B"/>
</svg>
